<svg width="24" height="20" viewBox="0 0 24 20" fill="none" xmlns="http://www.w3.org/2000/svg">
<path d="M22.8771 12.0364L16.711 18.2024C15.5894 19.3241 13.7591 19.3296 12.6319 18.2024C11.488 17.0641 11.5159 15.2394 12.6319 14.1177L16.7556 9.99959L12.6319 5.87586C11.5103 4.75423 11.4991 2.92953 12.6319 1.79675C13.7312 0.68628 15.5726 0.658389 16.711 1.80233L22.8771 7.95725C23.9987 9.07887 23.9987 10.9092 22.8771 12.0364ZM1.13254 14.1201L5.25445 9.99819L1.13254 5.87572C-0.0105527 4.73262 0.0170566 2.90783 1.13362 1.79905C2.23331 0.685858 4.07217 0.658765 5.21357 1.80012L11.3763 7.95739C12.4983 9.07887 12.4988 10.9093 11.3774 12.0373L5.21357 18.2016C4.08768 19.3265 2.25801 19.326 1.13362 18.2027C0.0122753 17.0881 -0.0123808 15.265 1.13254 14.1201ZM1.92051 17.4115C1.92051 17.4115 1.92107 17.4121 1.92159 17.4126C2.61201 18.103 3.73514 18.1025 4.42448 17.4126L10.5872 11.2494C11.2749 10.5573 11.2754 9.43419 10.5872 8.74648L4.42453 2.58922C3.72426 1.88895 2.59546 1.90644 1.92435 2.5865C1.22081 3.2855 1.23463 4.39859 1.92163 5.08667L6.41465 9.57912C6.50676 9.66416 6.57159 9.77802 6.59174 9.90228C6.62062 10.0794 6.56831 10.2625 6.44132 10.3895L1.92163 14.9091C1.22395 15.6068 1.2269 16.7224 1.92051 17.4115Z" fill="#BEE041"/>
</svg>
