<svg xmlns="http://www.w3.org/2000/svg" width="26" height="26" viewBox="0 0 26 26" fill="none">
  <g clip-path="url(#clip0_1_10975)">
    <path d="M24.8972 8.53104C24.1619 7.79596 23.2913 7.42839 22.2855 7.42839H16.8592C17.0721 6.8481 17.1785 6.22904 17.1785 5.57125C17.1785 4.39131 16.7842 3.47735 15.9959 2.82912C15.2074 2.18114 14.2088 1.85718 12.9998 1.85718C12.6323 1.85718 12.296 1.94179 11.9913 2.11117C11.6866 2.28029 11.4206 2.51984 11.1933 2.82912C10.9661 3.13865 10.7702 3.44336 10.6059 3.74328C10.4413 4.04316 10.2623 4.39131 10.069 4.78784C9.87554 5.18463 9.71602 5.48435 9.5903 5.68758C9.2518 6.21964 8.76806 6.84328 8.1395 7.55915C8.12009 7.58816 8.05235 7.67044 7.93628 7.80582C7.82021 7.9413 7.72828 8.04527 7.66064 8.11779C7.593 8.1903 7.49396 8.29433 7.36326 8.42976C7.23245 8.56524 7.11638 8.67394 7.01495 8.75621C6.91337 8.83849 6.80462 8.92544 6.6885 9.01742C6.57243 9.10935 6.45875 9.17698 6.34751 9.22064C6.23637 9.26409 6.1324 9.28584 6.03569 9.28584H1.85724C1.34449 9.28584 0.906743 9.46751 0.544056 9.8301C0.181471 10.1925 0 10.6303 0 11.1429V20.4286C0 20.9413 0.181267 21.379 0.544056 21.7418C0.906947 22.1044 1.34444 22.2859 1.85724 22.2859H6.03569C6.60627 22.2859 7.68468 22.5715 9.27106 23.1421C11.0991 23.8095 12.6563 24.1429 13.9428 24.1429C15.3066 24.1429 16.4045 23.7535 17.2363 22.975C18.0681 22.1966 18.4794 21.135 18.4695 19.7902C19.0502 19.0454 19.3403 18.1845 19.3403 17.2077C19.3403 16.995 19.3256 16.7871 19.2968 16.5839C19.6161 16.0326 19.795 15.457 19.8338 14.8574H22.2859C23.3015 14.8574 24.1745 14.4899 24.9049 13.7548C25.635 13.0198 26 12.1445 26 11.129C25.9997 10.1325 25.6321 9.26673 24.8972 8.53104ZM3.43859 20.1531C3.25473 20.3369 3.03718 20.4288 2.78573 20.4288C2.53408 20.4288 2.31643 20.3369 2.13272 20.1531C1.94887 19.9693 1.85709 19.7518 1.85709 19.5003C1.85709 19.2488 1.94892 19.0311 2.13272 18.8474C2.31663 18.6636 2.53408 18.5716 2.78573 18.5716C3.03718 18.5716 3.25473 18.6636 3.43859 18.8474C3.62235 19.031 3.71423 19.2487 3.71423 19.5003C3.71423 19.7518 3.6223 19.9693 3.43859 20.1531ZM23.5912 12.4496C23.2239 12.8171 22.7881 13.0008 22.2851 13.0008H17.4829C17.6279 13.1652 17.7488 13.3951 17.8455 13.69C17.9423 13.985 17.9907 14.2535 17.9907 14.4952C17.9907 15.1627 17.7343 15.738 17.2217 16.2215C17.3959 16.531 17.4829 16.8649 17.4829 17.2226C17.4829 17.5805 17.3982 17.936 17.229 18.289C17.0596 18.6418 16.8299 18.8958 16.5396 19.0505C16.588 19.3403 16.6123 19.6114 16.6123 19.863C16.6123 21.4779 15.6983 22.2855 13.8702 22.2855C13.0866 22.2855 12.2185 22.1308 11.2658 21.8215C10.3131 21.5122 9.37727 21.2024 8.45833 20.8929C7.53939 20.5836 6.73184 20.4288 6.03533 20.4288H5.57111V11.1433H6.03533C6.72204 11.1433 7.39903 10.8676 8.06647 10.3161C8.3568 10.0741 8.84526 9.56137 9.53191 8.77801C10.2284 7.99466 10.7701 7.29357 11.1569 6.67436C11.2826 6.47114 11.4616 6.15678 11.6939 5.73123C12.3322 4.38669 12.7675 3.71457 12.9997 3.71457C13.6865 3.71457 14.2451 3.86204 14.6755 4.15694C15.1059 4.45204 15.321 4.92343 15.321 5.57146C15.321 5.98745 15.2485 6.39613 15.1035 6.79749C14.9583 7.19885 14.7988 7.52784 14.6247 7.78407C14.4506 8.04029 14.291 8.30637 14.1459 8.58206C14.0009 8.8577 13.9284 9.09232 13.9284 9.28568H22.2855C22.7689 9.28568 23.1995 9.47193 23.5769 9.84427C23.954 10.2169 24.1425 10.6494 24.1425 11.1428C24.1425 11.6462 23.9588 12.0814 23.5912 12.4496Z" fill="url(#paint0_linear_1_10975)"/>
  </g>
  <defs>
    <linearGradient id="paint0_linear_1_10975" x1="9.68577e-08" y1="13" x2="26" y2="13" gradientUnits="userSpaceOnUse">
      <stop stop-color="#8F73FF"/>
      <stop offset="0.452703" stop-color="#5347FF"/>
      <stop offset="0.576577" stop-color="#4471FE"/>
      <stop offset="1" stop-color="#21D3FD"/>
    </linearGradient>
    <clipPath id="clip0_1_10975">
      <rect width="25.9999" height="26" fill="white"/>
    </clipPath>
  </defs>
</svg>