<svg xmlns="http://www.w3.org/2000/svg" width="24" height="24" viewBox="0 0 24 24" fill="none">
  <path d="M21.8908 7.31558H15.0671L12.8298 5.06896C11.5615 3.80057 9.54877 3.68915 8.14819 4.80969L3.85917 8.2409C3.47995 7.67844 2.83706 7.3078 2.10923 7.3078H0.703078C0.314766 7.30776 0 7.62252 0 8.01079V19.2597C0 19.648 0.314766 19.9628 0.703078 19.9628H2.10919C2.934 19.9628 3.64936 19.4866 3.99586 18.7949C6.09966 19.5699 8.30208 19.9628 10.5509 19.9628C10.8481 19.9628 13.0605 19.9628 13.3581 19.9628C14.5211 19.9628 15.4672 19.0166 15.4672 17.8536C15.4672 17.5791 15.414 17.317 15.3181 17.0762C16.2132 16.8323 16.8734 16.0127 16.8734 15.0414C16.8734 14.7669 16.8201 14.5048 16.7243 14.264C17.6193 14.0201 18.2795 13.2005 18.2795 12.2292C18.2795 11.9821 18.2364 11.745 18.158 11.5245H21.8908C23.0538 11.5245 24 10.5784 24 9.41535V9.41066C24 8.25027 23.0538 7.31558 21.8908 7.31558ZM2.81222 17.8536C2.81222 18.2413 2.49684 18.5567 2.10914 18.5567H1.40611V8.71387H2.10919C2.49684 8.71387 2.81227 9.02924 2.81227 9.41694L2.81222 17.8536ZM22.5939 9.41535C22.5939 9.80301 22.2785 10.1278 21.8908 10.1278H13.3651C12.9768 10.1278 12.662 10.4332 12.662 10.8215C12.662 11.2098 12.9768 11.5246 13.3651 11.5246H16.1395C16.1498 11.5251 16.1599 11.5261 16.1703 11.5261C16.5579 11.5261 16.8734 11.8415 16.8734 12.2292C16.8734 12.6169 16.558 12.9323 16.1703 12.9323H13.3581C12.9698 12.9323 12.655 13.2471 12.655 13.6354C12.655 14.0237 12.9697 14.3384 13.3581 14.3384H14.7642C15.1518 14.3384 15.4672 14.6538 15.4672 15.0415C15.4672 15.4292 15.1519 15.7446 14.7642 15.7446H13.3581C12.9698 15.7446 12.655 16.0594 12.655 16.4477C12.655 16.836 12.9697 17.1508 13.3581 17.1508C13.7457 17.1508 14.0611 17.4661 14.0611 17.8538C14.0611 18.2415 13.7458 18.5569 13.3581 18.5569C13.0603 18.5569 10.8481 18.5569 10.5509 18.5569C8.37473 18.5569 6.24548 18.1599 4.21833 17.3765V9.75421L9.02653 5.90765C9.86681 5.23532 11.0745 5.30221 11.8355 6.06322L13.0785 7.31563C10.7037 7.31563 13.0598 7.31249 10.5458 7.31249C10.1575 7.31249 9.84272 7.62726 9.84272 8.01557C9.84272 8.40383 10.1575 8.70927 10.5458 8.70927C10.7 8.70927 21.7363 8.71241 21.8908 8.71241C22.2784 8.71241 22.5938 9.02568 22.5938 9.4108L22.5939 9.41535Z" fill="white"/>
</svg>