<svg xmlns="http://www.w3.org/2000/svg" width="33" height="22" viewBox="0 0 33 22" fill="none">
  <circle cx="11" cy="11" r="11" fill="#321692"/>
  <path d="M25.7887 11.2565L24.7742 10.2419L24.765 10.2327L24.7651 10.2326C24.4461 9.90243 24.2697 9.46018 24.2737 9.00112C24.2776 8.54206 24.4618 8.10294 24.7864 7.77833L25.2814 8.2733L24.7864 7.77833C25.111 7.45371 25.5501 7.26958 26.0092 7.26559C26.4682 7.2616 26.9105 7.43807 27.2407 7.757L27.2501 7.76605L27.25 7.76613L31.2525 11.7687L25.7887 11.2565ZM25.7887 11.2565H15.0032C14.6713 11.2565 14.3529 11.1246 14.1182 10.8899C13.8835 10.6551 13.7516 10.3368 13.7516 10.0048V5.00081C13.7516 4.53646 13.5672 4.09114 13.2388 3.7628L12.7085 4.29313L13.2388 3.7628C12.9105 3.43446 12.4651 3.25 12.0008 3.25C11.5365 3.25 11.0911 3.43446 10.7628 3.7628C10.4345 4.09114 10.25 4.53646 10.25 5.00081V10.0048C10.25 11.2655 10.7508 12.4745 11.6422 13.3659C12.5336 14.2573 13.7426 14.7581 15.0032 14.7581H25.7887L24.7732 15.7736L24.7731 15.7735L24.7641 15.7829C24.4451 16.1131 24.2687 16.5553 24.2727 17.0144C24.2766 17.4735 24.4608 17.9126 24.7854 18.2372C25.11 18.5618 25.5491 18.7459 26.0082 18.7499C26.4672 18.7539 26.9095 18.5774 27.2397 18.2585L27.2398 18.2586L27.249 18.2494L30.7221 14.7762L30.7225 14.7766L31.2525 14.2478C31.4156 14.0852 31.545 13.892 31.6332 13.6793C31.7215 13.4666 31.7669 13.2386 31.7669 13.0083C31.7669 12.778 31.7215 12.5499 31.6332 12.3372C31.5451 12.1248 31.416 11.9319 31.2532 11.7694L25.7887 11.2565Z" fill="white" stroke="#321692" stroke-width="1.5"/>
</svg>