<svg xmlns="http://www.w3.org/2000/svg" width="368" height="797" viewBox="0 0 368 797" fill="none">
  <path d="M360.115 369.309C360.19 369.033 360.215 368.756 360.215 368.48C360.215 366.497 358.608 364.89 356.624 364.864L309.168 250.341V235.601V224.352C310.448 222.871 310.725 220.686 309.62 218.954C308.766 217.573 307.285 216.82 305.753 216.82C304.924 216.82 304.096 217.046 303.342 217.523L275.998 234.672L277.254 183.399C290.06 171.572 303.92 157.436 307.711 149.978C315.244 135.164 313.185 104.656 312.482 99.6591C312.08 96.8469 312.281 92.2017 312.457 87.682C312.733 80.7518 313.035 73.5705 311.704 68.0213C309.57 58.982 301.535 48.0594 297.241 42.2089L296.387 41.0287C291.742 34.651 286.645 34.2492 282.175 33.8977C281.045 33.7972 279.865 33.7219 278.534 33.521C277.932 33.4457 277.43 33.3704 276.852 33.295C276.752 30.3824 276.475 27.6454 276.249 25.938C276.827 25.1345 277.455 20.3637 277.53 19.1082C277.555 18.6563 277.48 18.2043 277.329 17.7774C277.43 17.451 277.505 17.0995 277.505 16.748C277.505 15.8189 277.304 14.689 276.576 13.7097C277.404 12.7807 278.585 11.249 278.585 8.46187C278.585 3.38977 274.718 0 268.968 0C263.218 0 259.351 3.41488 259.351 8.46187C259.351 11.249 260.531 12.7556 261.359 13.7097C260.631 14.689 260.43 15.8189 260.43 16.748C260.43 17.0995 260.481 17.451 260.606 17.7774C260.456 18.2043 260.38 18.6563 260.405 19.1082C260.481 20.3637 261.41 25.1345 261.987 25.938C261.837 27.0679 261.661 28.6498 261.535 30.4326C260.506 30.2819 259.401 30.2066 258.321 30.2066C248.654 30.2066 245.064 35.6051 244.938 40.2252C244.838 44.2176 246.871 47.4567 249.659 49.6664C249.784 50.2439 249.935 50.7963 250.136 51.3236C249.181 53.3574 249.031 55.2658 249.181 56.7221C249.332 58.4295 249.885 59.8859 250.613 61.1162C250.211 63.0246 250.311 64.6818 250.588 65.9624C250.839 67.1425 251.24 68.1971 251.743 69.1261C251.592 70.1054 251.617 71.1349 251.793 72.1644C252.596 76.7845 256.312 80.1743 260.707 80.35C260.707 81.5553 260.682 82.7856 260.707 83.9909C260.807 89.9418 261.51 98.2781 261.887 102.572C261.209 103.827 260.782 105.485 260.807 107.518C260.832 108.473 261.033 109.376 261.359 110.105C260.707 112.164 259.978 115.001 260.054 118.24L260.556 141.391C252.948 148.17 240.092 158.415 236.853 159.897C235.095 160.675 231.705 161.378 228.115 162.106C223.068 163.136 216.765 164.441 210.362 166.802C202.604 169.689 197.331 173.531 194.368 176.167C193.941 176.117 193.514 176.067 193.062 175.992C192.434 175.916 191.731 175.816 191.003 175.715C189.999 174.887 188.969 173.832 187.94 172.702C186.91 171.547 185.981 170.116 185.479 168.609C184.851 167.103 184.701 165.596 184.952 164.015C185.178 162.433 185.404 160.7 184.977 159.193C184.701 158.189 184.123 157.486 183.571 157.009C183.746 156.557 183.922 156.13 184.098 155.678C187.312 147.041 189.145 138.98 190.074 134.034C192.51 132.753 195.146 130.117 196.427 124.718C197.255 121.203 197.155 118.14 196.125 115.604C198.26 113.369 199.013 110.732 199.54 108.899C199.842 107.845 200.143 106.866 200.62 105.836C202.202 102.572 203.131 97.9015 198.963 93.5827C198.862 90.6198 197.808 88.4855 196.351 86.8533C198.034 82.1579 197.908 77.4122 193.037 70.5825C189.145 65.1086 185.705 63.8532 182.215 62.9743C181.461 62.7735 180.884 62.6228 180.281 62.3717C179.955 62.1708 179.126 61.0911 178.574 60.363C177.067 58.3291 174.983 55.5671 171.367 53.8596C168.028 52.2777 164.663 52.2777 161.424 52.2526C158.662 52.2275 155.825 52.2275 152.586 51.2985C150.627 50.7461 148.643 50.4448 146.66 50.4448C139.654 50.4448 134.482 53.9601 131.393 56.0693C131.092 56.2701 130.791 56.471 130.54 56.6468C129.937 56.7723 128.757 56.9481 127.878 57.0736C121.299 58.0027 107.64 59.9361 104.828 74.0727C103.798 79.195 102.819 80.2747 101.563 81.6557C99.4793 83.9156 97.5459 86.4014 96.4913 91.7748C95.3362 97.6002 97.0186 101.567 98.6256 103.852C99.0022 104.405 99.4291 104.907 99.8559 105.359C99.1026 107.167 98.4498 109.301 98.1485 111.611C97.7216 114.825 98.5251 117.587 100.032 119.847C97.8974 127.581 104.049 137.65 106.158 140.763C106.661 141.491 107.138 142.169 107.615 142.847C107.59 142.872 107.59 142.898 107.564 142.923C106.861 144.354 105.706 146.212 106.133 148.572C106.409 150.782 107.891 152.891 109.272 154.674C109.95 155.628 110.653 156.557 110.979 157.536C111.331 158.541 111.406 159.671 111.281 160.826C111.055 163.186 109.95 165.446 108.519 167.655C107.364 169.513 106.008 171.447 105.003 173.631C104.476 174.611 104.024 175.665 103.698 176.795C103.547 177.498 103.447 178.176 103.396 178.879C103.07 180.235 102.744 181.541 102.216 182.721C101.714 183.851 101.061 184.855 100.207 185.583C99.3788 186.312 98.274 186.738 97.0437 187.216C95.8635 187.693 94.4825 188.295 93.5033 189.425C92.524 190.555 92.1222 191.861 91.7707 192.966C91.4694 194.07 91.0927 195.075 90.6157 195.979C81.978 198.691 72.2607 203.386 64.3764 213.254C57.5215 221.841 52.8763 239.544 49.135 253.755C47.7791 258.903 46.4985 263.774 45.5945 266.134C42.255 274.898 30.9055 298.375 21.4644 313.767C11.3453 330.264 -1.58599 364.513 -4.32292 377.268C-4.44847 377.871 -4.62423 378.524 -4.8 379.177C-5.75415 378.599 -6.80875 378.223 -8.06422 378.172C-9.97253 378.097 -11.9562 378.775 -14.0905 380.307C-21.2466 385.404 -16.8776 396.377 -14.1407 402.353C-16.2499 407.4 -17.3798 410.965 -17.2794 414.079C-17.204 416.489 -17.5807 419.226 -17.9824 422.114C-18.4093 425.227 -18.9115 428.768 -18.9366 432.61C-19.0119 441.749 -14.442 448.177 -9.31969 454.53C-4.44847 460.556 1.70333 461.46 4.96755 461.46C5.69573 461.46 6.29835 461.41 6.80054 461.36C7.67937 464.398 8.95995 468.667 10.0145 471.856C9.51235 472.358 8.75907 473.036 8.18156 473.538C6.1477 475.346 3.86274 477.38 2.70771 479.765C0.297209 484.787 2.90859 487.926 4.2896 489.608C4.59091 489.984 4.89223 490.336 5.04288 490.587C5.77106 491.792 7.05163 492.521 8.50798 492.521C10.3159 492.521 11.948 491.441 14.5844 489.683L78.6636 671.475C78.1865 674.865 77.835 678.631 77.6592 682.925C76.8306 703.188 81.1997 710.52 85.6691 715.291C83.0577 717.476 77.0315 720.589 71.9594 721.619C68.2934 722.347 65.6318 724.657 64.6275 727.946C63.9746 730.131 64.1504 732.566 65.1547 735.228C63.4222 735.002 61.5892 734.826 59.6809 734.826C56.8687 734.826 54.2824 735.203 51.7714 735.981C44.8413 738.115 42.9832 742.962 43.5607 746.828C45.1928 757.676 64.9539 761.517 81.4005 761.517C84.1375 761.517 86.9999 761.417 89.8624 761.216C102.317 760.362 109.724 757.726 113.917 752.654C118.261 747.406 117.558 741.279 117.081 737.237C117.031 736.86 116.981 736.408 116.93 735.956L117.483 734.023C117.658 733.445 117.633 732.842 117.483 732.24C117.633 732.039 117.784 731.863 117.935 731.713L118.085 731.687C119.065 740.451 118.136 751.7 116.755 757.927C114.696 767.167 114.972 783.689 120.797 790.695C123.057 793.381 127.451 796.62 135.662 796.62C139.479 796.62 143.044 795.917 145.379 795.34C155.423 792.829 153.942 782.986 153.389 779.27C153.188 777.889 152.962 776.457 152.937 775.152C152.887 773.846 152.912 772.44 152.912 770.933C152.912 764.932 152.912 756.696 150.677 745.724C148.945 737.237 147.338 724.556 146.459 717.099C148.242 717.124 150.326 717.325 152.636 717.701C156.001 718.254 158.888 720.213 161.951 722.322C165.643 724.833 169.836 727.695 175.084 727.695C178.247 727.695 181.336 726.641 184.249 724.582C186.433 723.05 188.291 721.594 189.873 720.263C191.555 723.351 193.464 726.389 195.297 729.252C195.924 730.231 196.527 731.185 197.079 732.089C202.051 740.149 212.873 743.891 218.623 743.891C218.9 743.891 219.151 743.891 219.402 743.865C225.855 743.464 230.5 738.944 231.806 731.763C231.931 731.009 232.157 730.482 232.459 729.754C233.237 727.846 234.543 724.657 232.885 719.961C231.58 716.295 228.215 713.609 224.323 710.52C222.591 709.139 219.703 706.854 219.075 705.825C217.293 702.887 212.321 685.612 211.116 678.832C210.563 675.719 211.015 672.731 211.794 667.809C212.22 665.072 212.773 661.657 213.225 657.464C214.053 649.781 214.279 643.805 214.279 639.561C223.269 638.908 238.158 635.493 244.185 620.754C246.871 614.201 251.692 609.581 256.338 605.111C262.54 599.185 269.545 592.456 268.591 582.01C267.361 568.376 257.116 551.101 247.399 551.101C246.846 551.101 246.319 551.151 245.792 551.251C242.377 551.879 238.108 554.516 234.844 556.851C234.066 556.047 233.312 554.867 232.86 553.109C232.208 550.573 231.956 543.016 231.73 535.684C231.278 521.773 230.751 504.448 227.186 493.45C224.198 484.234 223.972 478.284 223.721 471.379C223.545 466.884 223.344 461.812 222.365 455.534C221.888 452.471 221.611 448.228 221.486 443.231C225.328 443.356 229.496 443.407 234.066 443.407C261.209 443.407 275.145 441.348 282.125 436.276C287.749 432.183 290.009 430.35 290.009 425.654C290.009 421.511 285.992 420.406 282.25 420.03C282.326 419.754 282.351 419.477 282.351 419.201C282.351 417.218 280.744 415.611 278.76 415.585L267.059 387.388C274.793 391.104 288.377 392.661 311.93 392.661C339.073 392.661 353.009 390.602 359.989 385.53C365.614 381.437 367.874 379.604 367.874 374.908C367.899 370.79 363.881 369.711 360.115 369.309ZM184.575 690.659L181.16 681.444L185.83 708.637C183.721 708.763 180.633 709.441 176.741 709.968C176.766 709.616 176.816 709.24 176.816 708.838C176.816 707.708 176.917 706.402 176.791 704.996C176.666 703.59 176.515 702.109 176.339 700.627C176.063 699.146 175.736 697.689 175.435 696.333C175.109 694.978 174.657 693.722 174.305 692.667C173.954 691.613 173.502 690.759 173.251 690.157C172.949 689.554 172.774 689.227 172.774 689.227C172.774 689.227 172.799 689.604 172.824 690.257C172.899 690.91 172.899 691.864 173.05 692.944C173.2 694.048 173.276 695.354 173.502 696.71C173.728 698.066 173.929 699.522 174.104 700.979C174.381 702.41 174.632 703.866 174.833 705.222C175.033 706.578 175.36 707.834 175.536 708.938C175.611 709.365 175.711 709.717 175.787 710.093C173.1 710.42 170.037 710.646 166.697 710.545C166.295 706.201 165.643 700.577 164.538 695.053C162.454 683.628 158.612 672.881 158.612 672.881C158.612 672.881 159.641 684.256 158.863 695.404C158.587 700.477 157.959 705.448 157.331 709.365C153.992 708.637 150.451 707.532 146.76 705.875C147.036 699.648 147.212 691.261 146.76 682.875C146.107 666.453 143.069 650.434 143.069 650.434C143.069 650.434 144.4 666.704 143.345 682.875C143.195 685.662 142.994 688.424 142.743 691.111C142.818 687.897 142.868 684.632 142.743 681.293C142.592 676.02 142.291 670.672 141.789 665.298C141.186 659.95 140.408 654.602 139.278 649.379C138.173 644.131 136.591 639.034 134.482 634.238C132.322 629.367 129.435 625.274 126.447 621.608C123.459 617.942 120.295 614.929 117.483 612.167C111.808 606.668 107.389 601.872 104.526 598.231C103.095 596.423 101.99 594.992 101.262 593.962C100.509 592.958 100.132 592.431 100.132 592.431C100.132 592.431 100.408 593.033 100.936 594.163C101.463 595.293 102.292 596.925 103.421 598.984C105.079 602.023 107.64 605.94 110.954 610.233C108.996 608.526 107.087 606.869 105.455 605.086C103.497 602.952 101.689 600.792 100.157 598.583C99.0775 597.001 98.1234 595.444 97.2446 593.887C95.512 579.55 89.6866 562.074 85.0665 554.139C79.0151 543.744 67.6657 498.02 68.8709 470.223C69.2476 461.787 69.9506 454.279 70.8295 447.374C70.9801 448.479 71.1308 449.558 71.2814 450.688C71.6832 452.697 72.0598 454.781 72.5369 456.89C73.1144 458.974 73.5664 461.159 74.3448 463.268C75.6756 467.587 77.4584 471.906 79.5675 476.149C81.7018 480.393 84.1626 484.486 86.7237 488.478C89.3602 492.42 92.0971 496.212 94.6834 499.953C97.2446 503.719 99.8308 507.36 102.141 510.976C106.811 518.207 110.678 525.213 113.44 531.49C116.152 537.793 117.759 543.317 118.638 547.284C119.115 549.268 119.341 550.85 119.517 551.929C119.692 553.009 119.793 553.587 119.793 553.587C119.793 553.587 119.818 553.009 119.893 551.904C119.969 550.799 120.069 549.193 119.969 547.108C119.868 542.99 119.19 537.014 117.131 530.134C115.122 523.254 111.708 515.571 107.313 507.837C105.079 503.996 102.769 500.053 100.157 496.212C97.5961 492.345 94.9345 488.528 92.4487 484.686C89.9126 480.87 87.5021 477.028 85.4431 473.086C83.4595 469.119 81.4507 465.227 80.0195 461.234C79.216 459.276 78.6636 457.267 77.9605 455.334C77.3328 453.375 76.8306 451.442 76.2782 449.558C75.8262 447.65 75.3994 445.792 74.9725 443.984C74.621 442.151 74.2695 440.393 73.943 438.711C73.5915 436.627 73.2902 434.669 73.014 432.785C74.6712 423.043 76.454 414.104 77.835 404.613C80.1451 388.593 88.6069 360.144 93.5535 346.208C99.5546 350.627 112.511 353.163 132.172 353.791C134.934 353.867 137.62 353.917 140.257 353.917C164.739 353.917 184.198 350.401 197.105 346.685C195.422 347.489 193.589 348.267 191.731 348.995C183.52 352.335 174.632 353.992 174.632 353.992C174.632 353.992 183.671 354.067 192.66 352.285C196.251 351.657 199.766 350.728 202.729 349.849C203.507 356.453 204.16 363.76 204.662 371.142L189.496 415.661C188.492 415.736 187.613 416.238 186.986 416.966C187.99 414.481 188.994 411.97 189.923 409.434C192.258 402.704 194.317 395.875 196 389.421C197.632 382.943 198.837 376.817 199.691 371.569C200.168 368.932 200.469 366.522 200.72 364.362C200.997 362.203 201.197 360.345 201.323 358.788C201.574 355.7 201.725 353.917 201.725 353.917C201.725 353.917 201.423 355.674 200.871 358.713C200.645 360.244 200.293 362.102 199.867 364.212C199.465 366.321 198.988 368.731 198.41 371.318C197.381 376.515 195.774 382.516 194.066 388.919C192.309 395.297 190.149 402.026 187.739 408.68C186.308 412.698 184.776 416.64 183.219 420.507C180.432 421.16 178.097 422.541 178.097 425.705C178.097 427.462 178.423 428.793 179.101 430.023C176.691 435.246 174.431 440.168 172.221 444.285C171.016 446.646 169.861 448.805 168.831 450.688C167.827 452.597 166.923 454.254 166.12 455.585C164.588 458.296 163.709 459.828 163.709 459.828C163.709 459.828 164.713 458.372 166.496 455.811C167.375 454.53 168.405 452.948 169.56 451.115C170.74 449.307 172.045 447.223 173.351 444.888C175.586 441.046 178.021 436.577 180.407 431.731C181.687 433.112 183.495 434.493 186.006 436.326C186.785 436.878 187.638 437.406 188.592 437.883C188.542 437.983 188.492 438.083 188.442 438.159C187.161 440.77 185.655 443.281 184.223 445.867C182.742 448.403 181.311 450.99 179.729 453.4C178.197 455.861 176.666 458.271 175.134 460.581C173.502 462.816 172.121 465.126 170.589 467.16C169.082 469.219 167.701 471.203 166.346 472.985C160.897 480.142 157.206 484.963 157.206 484.963C157.206 484.963 158.486 484.134 160.671 482.602C161.776 481.849 163.056 480.87 164.513 479.69C165.969 478.535 167.576 477.179 169.233 475.597C170.941 474.065 172.723 472.307 174.506 470.374C176.339 468.491 178.147 466.357 179.955 464.122C181.687 461.837 183.596 459.552 185.228 456.991C186.96 454.505 188.517 451.868 190.149 449.257C191.581 446.545 193.087 443.859 194.343 441.122C194.493 440.82 194.619 440.519 194.769 440.243C198.335 441.222 202.704 441.95 208.027 442.478C209.032 477.957 207.098 488.528 207.977 506.657C208.605 519.689 202.754 536.788 201.298 545.476C199.515 546.631 197.682 547.736 195.724 548.74C192.836 550.297 189.823 551.779 186.785 553.361C183.771 554.917 180.834 556.775 178.122 558.759C176.239 560.115 174.556 561.622 173 563.128C170.212 565.162 167.4 567.497 164.814 570.385C163.684 571.515 162.805 572.921 161.776 574.227C160.822 575.608 160.043 577.114 159.215 578.621C158.612 580.228 157.808 581.81 157.407 583.517C157.005 585.199 156.478 586.982 156.302 588.639C155.272 595.318 154.77 602.349 155.323 609.455C155.825 616.561 157.03 623.717 159.189 630.698C160.294 634.163 161.625 637.628 163.533 640.967C165.417 644.231 167.551 647.094 169.509 649.856C173.452 655.355 176.816 660.779 178.95 666.679C180.055 669.617 180.884 672.53 181.487 675.518C182.089 678.606 182.692 681.594 183.294 684.532C183.721 686.591 184.148 688.65 184.575 690.659ZM8.05601 488.88C6.80054 486.796 3.96318 485.264 5.87149 481.297C7.12696 478.66 10.9687 475.999 12.7766 474.015L12.9021 474.166C12.7012 474.266 13.6303 473.136 14.9109 472.257C16.1663 471.353 17.5976 470.6 17.5976 470.6C17.5976 470.6 15.9906 470.5 14.3334 470.65C13.9818 470.675 13.6554 470.726 13.3039 470.776C11.5211 465.428 9.08549 456.765 9.08549 456.765C9.78856 455.961 10.4916 455.334 11.1696 454.831L17.5976 463.067L17.3967 459.226L22.1173 466.181L21.0878 457.694C22.1926 460.355 23.674 463.996 25.0299 467.738C24.9295 467.788 24.8291 467.838 24.7286 467.888C23.2472 468.616 21.9164 469.52 21.9164 469.52C21.9164 469.52 23.5234 469.445 25.0802 469.571C26.637 469.671 28.0933 469.997 27.9929 470.023V469.822C31.9853 470.55 38.7397 469.445 39.3674 472.86C39.97 476.199 39.3674 480.016 39.3674 480.016C39.3674 480.016 37.2582 479.614 34.1949 479.539C36.7811 479.112 38.589 478.736 38.589 478.736C38.589 478.736 36.7309 477.606 33.6174 476.978C32.0857 476.626 30.2276 476.451 28.2188 476.526C27.2145 476.551 26.185 476.651 25.1304 476.852C24.126 477.003 22.8957 477.354 21.9415 477.681L21.2384 477.957L20.8116 478.108L20.46 478.258C19.983 478.484 19.5059 478.685 19.0288 478.936C18.0998 479.413 17.2209 479.941 16.3923 480.493C14.7602 481.598 13.3541 482.778 12.2493 483.908C10.0145 486.118 9.06038 488.051 9.06038 488.051C9.06038 488.051 11.0189 487.197 13.7056 485.942C14.1074 485.766 14.5593 485.565 14.9862 485.364C11.8977 487.373 9.61279 489.106 8.53309 489.106C8.35732 489.156 8.15645 489.056 8.05601 488.88ZM55.8894 255.262C55.9647 255.438 56.0149 255.588 56.1154 255.764C57.3457 257.974 59.2038 260.284 61.5641 262.393C64.0248 264.377 66.9877 266.084 70.1013 267.315C73.2902 268.344 76.6046 268.947 79.6931 269.122C81.1494 269.148 82.5304 269.072 83.8612 268.922C83.6855 269.122 83.5097 269.323 83.3088 269.549C82.3798 270.654 81.3252 271.884 80.2204 273.265C80.7477 273.391 81.3001 273.491 81.7772 273.567C82.9322 273.742 83.9366 273.968 84.6396 274.044C85.3427 274.169 85.7444 274.245 85.7444 274.245C85.7444 274.245 85.3427 274.345 84.6396 274.496C83.9366 274.596 82.9322 274.822 81.7018 274.847C80.4715 274.872 79.0402 274.923 77.5086 274.722C75.9769 274.496 74.3699 274.169 72.788 273.743C72.0096 273.466 71.2312 273.19 70.4779 272.864C70.3524 272.813 70.2268 272.788 70.1264 272.738C68.0925 272.161 66.1089 271.307 64.3764 270.302C62.5434 269.424 60.9364 268.369 59.6056 267.34C58.1995 266.411 57.0695 265.507 56.3414 264.804C55.5379 264.176 55.0859 263.749 55.0859 263.749C55.0859 263.749 55.2617 264.327 55.6383 265.306C56.0652 266.26 56.7682 267.591 57.8228 269.122C58.9527 270.554 60.4342 272.11 62.2421 273.592C64.1253 274.923 66.3349 276.128 68.6701 277.032C71.0806 277.735 73.5664 278.112 75.8765 278.187C76.1024 278.187 76.3284 278.162 76.5795 278.137C76.1024 278.815 75.6254 279.467 75.1483 280.196C75.7509 280.321 76.3284 280.422 76.8557 280.472C77.7346 280.572 78.4878 280.748 79.0151 280.798C79.5424 280.899 79.8438 280.949 79.8438 280.949C79.8438 280.949 79.5424 281.049 79.0402 281.25C78.5129 281.376 77.7848 281.652 76.8557 281.752C75.9267 281.853 74.847 282.003 73.6919 281.928C72.5369 281.853 71.3065 281.677 70.0762 281.451C68.8709 281.1 67.7159 280.673 66.6362 280.221C65.5565 279.744 64.6526 279.141 63.8993 278.614C63.8491 278.589 63.824 278.564 63.7737 278.513C63.6733 278.463 63.598 278.413 63.4975 278.363C61.4637 277.408 59.5805 276.053 58.0237 274.546C56.3665 273.14 54.9855 271.558 53.9811 270.077C53.3282 269.248 52.8009 268.47 52.3741 267.766C53.3282 264.954 54.5084 260.46 55.8894 255.262ZM98.0983 201.026C106.987 198.841 119.14 188.145 127.3 184.152L128.255 166.073C135.863 172.351 145.178 175.54 156.076 175.54C157.708 175.54 159.265 175.339 160.771 175.063C161.098 180.135 161.725 192.664 160.621 199.268C160.621 199.268 167.626 193.669 170.438 190.455C175.661 184.479 183.671 191.66 191.329 188.597C195.246 187.04 196.803 185.332 198.234 183.474C197.883 184.629 197.506 185.835 197.054 187.115C195.673 191.409 193.614 196.255 190.852 201.126C188.216 206.073 184.851 211.019 181.035 215.614C177.394 220.36 173.276 224.754 169.183 228.621C165.467 232.337 161.801 235.576 158.336 238.087C158.11 238.112 157.859 238.163 157.633 238.188C156.904 237.761 156.026 237.359 154.971 237.033C153.841 236.857 152.611 236.857 151.38 237.007C150.2 237.384 149.095 237.937 148.166 238.589C147.313 239.368 146.66 240.171 146.158 240.899C145.907 241.477 145.731 241.954 145.605 242.381C145.555 242.381 145.53 242.406 145.48 242.406C144.475 242.105 143.421 241.778 142.316 241.351C138.826 240.146 134.858 238.238 130.866 235.903C126.798 233.668 122.705 230.856 118.964 227.692C115.072 224.679 111.482 221.239 108.443 217.749C105.28 214.334 102.593 210.894 100.584 207.73C98.8767 205.319 97.5459 203.135 96.5415 201.352C97.0688 201.277 97.5961 201.151 98.0983 201.026ZM119.416 172.326C119.215 170.417 119.215 168.61 119.441 166.877C119.692 165.17 119.969 163.537 120.395 162.182C120.496 161.88 120.596 161.604 120.672 161.328C120.998 161.78 121.299 162.232 121.576 162.608L120.646 180.034C120.044 180.386 119.391 180.813 118.788 181.214C119.14 180.285 119.416 179.256 119.466 178.151C119.642 176.218 119.491 174.234 119.416 172.326ZM134.08 102.873C138.549 101.643 138.801 97.5751 138.951 95.1144C139.127 92.1263 139.177 91.9003 141.337 92.0008C144.425 92.1514 146.534 92.6034 148.392 93.0052C151.355 93.6329 153.891 94.1602 157.608 92.7038C160.621 91.5237 161.525 91.9506 166.371 94.6624C167.576 95.3403 168.982 96.1187 170.664 96.9976C175.36 99.4583 179.402 99.3327 182.064 99.2323C182.616 99.2072 183.345 99.1821 183.797 99.2072V99.2323C183.797 99.9102 183.721 100.714 183.621 101.542C183.345 102.748 183.068 104.204 182.868 105.886C182.842 106.338 182.817 106.815 182.792 107.318C182.616 107.192 182.441 107.066 182.24 106.941C180.959 106.137 179.352 105.56 177.569 105.158C173.979 104.581 170.087 104.455 165.768 104.129C161.474 104.028 156.879 104.028 152.284 104.179C147.689 104.555 143.119 105.133 138.851 105.911C134.607 106.84 130.715 107.92 127.426 109.05C125.041 109.979 123.007 110.883 121.375 111.661C121.877 110.582 122.404 110.004 123.785 109.452C126.296 108.473 127.627 107.142 128.782 105.987C130.063 104.756 131.167 103.652 134.08 102.873ZM182.993 160.725C182.993 161.554 182.667 162.408 182.19 163.311C181.738 164.241 181.035 165.17 180.332 166.224C179.704 167.329 179.176 168.635 178.95 169.865C178.75 170.794 178.8 171.723 178.925 172.501C177.795 172.049 176.691 171.673 175.661 171.372L175.586 170.593C177.595 168.333 180.306 164.592 182.767 159.093C182.918 159.545 183.018 160.097 182.993 160.725ZM117.458 118.642C119.316 116.482 120.119 114.649 120.772 113.118C122.655 112.616 125.141 112.038 128.129 111.536C131.418 110.808 135.31 110.23 139.479 109.828C143.622 109.276 148.091 108.924 152.586 108.749C155.875 108.473 159.139 108.322 162.328 108.221C161.022 108.548 159.742 108.874 158.461 109.176C155.348 110.105 152.209 110.858 149.196 111.385C146.233 112.088 143.396 112.515 140.935 112.816C138.499 113.243 136.415 113.494 134.959 113.645C133.503 113.846 132.649 113.971 132.649 113.971C132.649 113.971 133.477 114.172 134.909 114.524C136.365 114.775 138.449 115.101 141.01 115.353C143.546 115.453 146.534 115.478 149.723 115.252C152.887 114.901 156.277 114.323 159.591 113.545C162.855 112.565 165.944 111.486 168.857 110.757C171.719 109.854 174.456 109.376 176.816 109.326C179.202 109.125 181.21 109.376 182.591 109.728C182.616 109.728 182.642 109.753 182.692 109.753C182.692 111.235 182.717 112.791 182.767 114.398C182.918 115.93 183.094 117.512 183.244 119.094C183.244 119.144 183.244 119.194 183.269 119.27C182.842 119.244 182.416 119.194 181.913 119.169C180.783 118.592 179.352 117.889 177.595 117.286C175.41 116.533 172.774 115.754 169.861 115.403C166.973 115.076 163.835 114.951 160.746 115.076C157.658 115.277 154.569 115.679 151.757 116.181C148.92 116.658 146.333 117.286 144.099 117.637C141.864 118.014 139.981 118.315 138.65 118.416C137.319 118.567 136.566 118.592 136.566 118.592C136.566 118.592 137.319 118.717 138.675 118.843C140.006 118.918 141.964 119.044 144.249 118.893C146.559 118.717 149.246 118.491 152.058 118.115C154.871 117.713 157.859 117.437 160.872 117.336C163.86 117.11 166.873 117.11 169.66 117.361C172.447 117.612 175.033 117.964 177.243 118.516C177.971 118.692 178.624 118.868 179.252 119.018C177.494 118.943 175.536 118.943 173.577 119.069C167.425 119.32 161.575 120.726 161.575 120.726C161.575 120.726 166.27 120.977 171.292 122.006C166.27 122.207 161.098 122.735 155.95 123.312C155.825 123.337 155.699 123.362 155.574 123.362C153.038 123.438 150.401 123.438 147.765 123.337C144.651 123.287 141.538 123.136 138.625 122.86C135.712 122.559 132.975 122.383 130.64 122.032C128.305 121.705 126.346 121.504 124.99 121.278C123.609 121.077 122.831 120.977 122.831 120.977C122.831 120.977 123.584 121.253 124.89 121.705C126.221 122.107 128.079 122.785 130.414 123.287C132.724 123.84 135.461 124.417 138.399 124.819C140.156 125.045 141.989 125.195 143.848 125.346C142.19 125.622 140.558 125.873 139.001 126.074C133.754 126.928 128.832 127.028 124.815 126.024C120.872 125.346 118.01 122.885 115.926 121.354C115.574 121.103 115.273 120.902 114.947 120.701C116.277 119.998 117.081 119.069 117.458 118.642ZM147.89 241.351C148.292 240.849 148.769 240.221 149.472 239.77C150.175 239.318 150.979 238.941 151.832 238.69C152.711 238.539 153.615 238.539 154.444 238.64C155.272 238.74 155.975 239.117 156.553 239.393C157.13 239.694 157.507 240.096 157.783 240.347C158.009 240.648 158.16 240.799 158.16 240.799C158.16 240.799 157.959 240.774 157.582 240.724C157.231 240.648 156.729 240.648 156.176 240.598C155.624 240.523 154.971 240.598 154.343 240.598C153.69 240.598 153.012 240.699 152.36 240.899C151.707 241 151.029 241.201 150.451 241.477C149.874 241.753 149.246 241.954 148.794 242.28C148.342 242.582 147.865 242.783 147.589 243.009C147.288 243.209 147.112 243.31 147.112 243.31C147.112 243.31 147.162 243.109 147.237 242.732C147.338 242.406 147.488 241.854 147.89 241.351ZM142.567 247.729C144.249 247.403 145.806 247.076 147.313 246.75C147.262 248.834 147.212 251.621 146.911 254.91C146.81 256.191 146.66 257.572 146.484 258.978C145.856 259.631 145.178 260.259 144.425 260.836C142.592 262.468 140.357 263.95 137.972 265.331C135.687 266.888 133.277 268.394 131.042 269.976C128.907 271.684 126.999 273.466 125.543 275.174C124.187 276.956 123.308 278.614 122.806 279.794C122.379 281.024 122.228 281.727 122.228 281.727C122.228 281.727 122.68 281.15 123.559 280.271C124.388 279.367 125.643 278.162 127.326 277.007C128.907 275.751 130.941 274.471 133.226 273.265C135.436 271.935 137.922 270.629 140.408 269.147C142.19 267.942 143.948 266.637 145.555 265.18C144.626 270.303 143.195 275.776 140.935 280.999C139.001 285.443 136.516 289.737 133.477 293.152C130.439 296.592 126.999 299.329 123.785 301.338C120.596 303.372 117.709 304.727 115.65 305.581C113.591 306.435 112.36 306.812 112.36 306.812C112.36 306.812 113.641 306.636 115.8 306.083C117.985 305.531 121.073 304.577 124.639 302.97C128.204 301.388 132.222 299.053 136.064 295.814C139.905 292.549 143.295 288.306 146.107 283.736C150.476 276.605 153.339 268.796 155.247 262.016C158.059 267.591 161.901 273.567 167.149 278.413C174.933 285.745 185.203 289.235 192.811 289.361C196.602 289.511 199.716 288.959 201.85 288.507C203.985 288.03 205.14 287.628 205.14 287.628C205.14 287.628 203.909 287.854 201.775 288.005C199.641 288.155 196.552 288.231 192.987 287.578C189.421 286.975 185.429 285.594 181.612 283.359C177.77 281.125 174.13 278.112 171.292 274.521C166.747 268.922 163.985 262.192 162.228 256.266C164.036 257.622 166.019 258.928 168.078 260.008C172.774 262.519 177.846 263.975 181.662 264.527C183.571 264.829 185.178 264.979 186.282 265.004C187.387 265.055 188.04 265.08 188.04 265.08C188.04 265.08 187.412 264.954 186.333 264.728C185.253 264.502 183.696 264.1 181.913 263.498C178.323 262.318 173.778 260.133 169.911 257.12C166.019 254.157 162.83 250.466 161.022 247.453C160.847 247.177 160.696 246.926 160.545 246.675C165.015 247.051 170.865 247.026 176.615 246.85C188.141 246.499 199.691 246.147 199.691 246.147C199.691 246.147 188.241 244.791 176.766 243.435C173.803 243.084 170.865 242.707 168.153 242.28C174.456 240.498 182.842 237.886 190.576 233.718C194.493 231.609 198.234 229.123 201.398 226.411C204.562 223.699 207.148 220.812 209.132 218.175C211.091 215.539 212.446 213.128 213.325 211.446C214.179 209.739 214.606 208.734 214.606 208.734C214.606 208.734 214.104 209.688 213.074 211.295C212.045 212.902 210.488 215.112 208.328 217.497C206.169 219.883 203.382 222.419 200.093 224.704C196.828 226.989 193.062 228.998 189.145 230.63C186.458 231.76 183.696 232.689 180.984 233.492C184.6 231.333 188.643 228.621 192.459 225.658C197.632 221.641 202.352 217.146 205.617 213.555C208.906 209.99 210.89 207.454 210.89 207.454C210.89 207.454 208.58 209.714 204.888 212.802C201.197 215.89 196.025 219.657 190.551 222.846C187.513 224.629 184.424 226.21 181.487 227.566C186.232 223.649 190.25 220.285 193.69 217.372C206.998 206.198 211.994 202.005 221.385 197.711C222.114 197.385 222.791 197.109 223.469 196.858C223.846 197.36 224.198 197.837 224.599 198.289C226.633 200.473 228.793 202.181 230.701 203.486C230.751 203.512 230.801 203.537 230.852 203.562C230.676 203.738 230.5 203.913 230.349 204.114C227.713 207.052 225.177 210.392 223.269 214.585C222.817 215.639 222.34 216.82 222.013 217.874L221.611 219.13L221.184 220.711C220.657 222.745 220.255 224.603 219.929 226.462C219.201 230.906 218.674 234.949 217.996 238.64C217.669 239.192 217.368 239.77 217.041 240.322C215.234 243.636 213.175 246.825 211.04 249.663C209.032 252.575 206.897 255.136 204.914 257.195C203.03 259.355 201.273 261.012 199.992 262.117C198.762 263.297 198.009 263.925 198.009 263.925C198.009 263.925 198.912 263.573 200.494 262.845C202.026 262.067 204.185 260.811 206.646 259.079C208.479 257.647 210.463 255.89 212.446 253.881C211.392 255.99 210.689 258.35 210.262 260.284C209.81 262.268 209.634 264.05 209.408 265.808C208.73 272.512 208.328 279.367 209.283 286.147C209.358 286.649 209.458 287.151 209.559 287.653C209.358 287.854 209.182 288.055 208.981 288.306C208.278 289.135 207.349 290.089 206.295 291.194C205.265 292.298 204.11 293.529 202.804 294.834C200.268 297.496 197.13 300.384 193.79 303.422C192.083 304.903 190.275 306.385 188.442 307.891C186.659 309.448 184.675 310.804 182.742 312.26C180.783 313.641 178.85 315.098 176.841 316.328C174.858 317.634 172.874 318.864 170.941 320.044C168.932 321.099 167.099 322.304 165.241 323.258C163.383 324.212 161.65 325.192 159.993 325.97C158.361 326.824 156.829 327.527 155.448 328.155C154.092 328.807 152.887 329.385 151.883 329.812C149.874 330.691 148.719 331.268 148.719 331.268C148.719 331.268 149.974 331.243 152.209 331.117C153.339 331.067 154.67 330.917 156.201 330.665C157.733 330.465 159.466 330.138 161.324 329.661C163.207 329.259 165.191 328.682 167.275 327.929C169.384 327.251 171.518 326.372 173.728 325.392C175.862 324.313 178.172 323.334 180.306 321.978C182.516 320.722 184.625 319.241 186.76 317.835C188.768 316.228 190.827 314.696 192.71 312.988C194.669 311.381 196.326 309.498 198.009 307.791C200.293 305.23 202.352 302.694 204.035 300.233C203.307 301.614 202.553 302.995 201.75 304.401C196.477 313.918 189.848 322.706 189.848 322.706C189.848 322.706 197.757 315.073 204.587 306.309C207.349 302.869 209.885 299.304 211.969 296.215C212.22 296.818 212.472 297.421 212.723 298.023L213.175 299.053L213.401 299.555L213.526 299.806L213.576 299.932C213.627 300.057 213.325 299.153 213.451 299.555L213.476 299.605L213.827 300.559C213.928 300.861 214.104 301.262 214.079 301.338C214.104 301.664 214.254 301.815 214.305 302.317C214.656 304.276 214.455 306.56 214.204 308.695C213.978 310.854 213.476 312.938 212.974 314.897C211.944 318.789 210.664 322.178 209.333 324.815C208.102 327.175 206.973 329.008 205.968 330.239C195.246 334.658 169.961 341.211 135.31 340.107C119.416 339.604 110.603 337.797 105.732 336.064C108.016 335.964 110.779 335.537 113.817 334.532C115.926 333.829 118.161 332.9 120.395 331.695C122.655 330.515 124.915 329.134 127.15 327.527C129.359 325.895 131.644 324.212 133.728 322.254C135.863 320.346 137.922 318.287 139.931 316.202C141.864 314.043 143.747 311.859 145.505 309.624C147.313 307.414 148.844 305.079 150.376 302.844C153.364 298.325 155.775 293.88 157.507 289.913C159.265 285.946 160.344 282.481 160.922 280.02C161.198 278.789 161.374 277.81 161.449 277.132C161.55 276.454 161.575 276.103 161.575 276.103C161.575 276.103 161.399 276.429 161.073 277.007C160.771 277.609 160.269 278.438 159.641 279.518C158.361 281.627 156.452 284.565 154.067 287.98C151.657 291.394 148.719 295.261 145.505 299.304C143.923 301.338 142.115 303.346 140.408 305.431C138.675 307.515 136.817 309.548 134.934 311.557C133.076 313.591 131.192 315.575 129.259 317.433C127.326 319.291 125.417 321.149 123.484 322.806C121.525 324.413 119.642 326.045 117.759 327.376C115.876 328.732 114.043 329.937 112.285 330.967C108.77 332.976 105.556 334.156 103.195 334.708C103.045 334.733 102.944 334.758 102.794 334.809C100.71 333.729 99.7806 332.724 99.4542 332.097C100.484 329.159 101.237 326.221 101.362 324.012C102.342 323.484 103.271 322.882 104.125 322.229C104.953 321.501 105.706 320.722 106.409 319.944C107.113 319.19 107.59 318.312 108.092 317.533C109.071 315.926 109.724 314.395 110.201 313.039C110.703 311.708 111.055 310.528 111.281 309.674C111.507 308.82 111.657 308.293 111.657 308.293C111.657 308.293 111.13 308.419 110.276 308.795C109.423 309.147 108.293 309.774 107.087 310.678C105.857 311.532 104.602 312.662 103.396 313.792C102.819 314.369 102.141 314.872 101.588 315.474C101.036 316.027 100.433 316.529 99.8057 316.981C99.2282 317.483 98.6507 317.96 98.048 318.337C97.4454 318.713 96.893 319.165 96.3155 319.442C95.738 319.718 95.1856 320.019 94.6081 320.245C94.0305 320.421 93.453 320.622 92.9006 320.722C92.4487 320.797 91.9716 320.848 91.5447 320.848C91.1179 320.17 90.8668 319.09 90.9421 317.383C91.2936 308.544 96.0142 314.369 93.7292 305.657C93.4028 304.376 93.2773 303.422 93.3024 302.643C93.5032 302.242 93.679 301.865 93.9552 301.488C94.5076 300.459 95.3614 299.455 96.3908 298.626C97.2697 297.647 98.3745 296.768 99.4793 296.065C100.534 295.211 101.664 294.483 102.643 293.88C103.597 293.152 104.426 292.575 105.003 292.173C105.556 291.696 105.882 291.419 105.882 291.419C105.882 291.419 105.455 291.394 104.727 291.344C104.024 291.369 102.995 291.394 101.739 291.495C100.534 291.721 99.1278 292.047 97.5961 292.6C96.4662 293.127 95.3362 293.83 94.2063 294.659C90.1386 288.356 96.6168 289.787 97.4454 276.153C97.5208 274.898 97.571 273.743 97.571 272.613C100.107 260.711 111.783 255.362 130.665 250.541C135.285 249.186 139.152 248.407 142.567 247.729ZM261.485 151.309H263.67H272.408L272.383 153.544C272.282 153.544 272.207 153.569 272.131 153.569C271.001 153.644 269.495 153.745 267.988 153.845C264.975 154.021 261.962 154.197 261.962 154.197C261.962 154.197 264.975 154.423 267.988 154.649C269.47 154.749 270.951 154.85 272.081 154.925L271.755 155.578H262.615L261.535 154.172L261.485 151.309ZM258.146 60.5638C258.874 60.0617 259.828 59.6599 260.882 59.3335C263.017 58.6053 265.377 58.1031 267.788 57.8269C270.173 57.4503 272.608 57.2996 274.893 57.2745C277.178 57.2745 279.338 57.1992 281.196 57.2745C283.054 57.3247 284.611 57.2745 285.716 57.2996C286.82 57.2745 287.448 57.2745 287.448 57.2745C287.448 57.2745 286.846 57.1239 285.766 56.8728C284.686 56.6719 283.18 56.2701 281.321 56.019C279.463 55.7679 277.279 55.3913 274.919 55.3411C272.558 55.2658 270.022 55.316 267.486 55.6173C264.975 56.019 262.464 56.6468 260.23 57.5256C259.301 57.8771 258.397 58.3542 257.593 58.9819C256.739 58.1784 255.76 56.8476 256.087 55.1653C256.162 54.9142 256.212 54.6631 256.338 54.412C256.463 54.0856 256.664 53.7843 256.865 53.483C256.94 53.3826 257.041 53.257 257.116 53.1315C257.92 52.1773 259.075 51.3487 260.38 50.7712C262.289 49.9426 264.599 49.6915 266.984 49.591C269.369 49.3902 271.755 49.3148 273.99 49.3651C276.224 49.4404 278.333 49.4153 280.141 49.5659C281.949 49.7166 283.456 49.7668 284.51 49.8924C285.565 49.9928 286.193 50.043 286.193 50.043C286.193 50.043 285.615 49.8421 284.611 49.4655C283.581 49.1642 282.125 48.662 280.317 48.2854C278.509 47.9338 276.375 47.507 274.065 47.3814C271.755 47.2308 269.294 47.2056 266.808 47.3312C264.373 47.5321 261.761 47.8836 259.527 48.9884C258.648 49.4153 257.919 49.9928 257.242 50.6205C256.614 49.3902 255.986 47.6827 256.413 46.4021C256.589 46.0506 256.79 45.6991 257.066 45.3727C258.221 43.8661 260.305 42.9119 262.665 42.4349C265.051 41.9578 267.813 41.7318 270.499 41.5309C273.186 41.2547 275.898 41.1041 278.434 41.079C280.468 41.0538 282.351 41.0036 284.083 41.0287C286.745 41.3803 288.653 42.1587 290.838 45.1467C290.838 45.1467 292.194 47.6074 294.554 51.876C295.734 54.0103 297.115 56.6217 298.572 59.6097C299.3 61.1162 300.003 62.7233 300.656 64.4307C301.334 66.113 301.911 67.9209 302.263 69.7288C302.388 70.3314 302.614 71.838 302.614 72.5912C302.664 73.4701 302.664 74.5749 302.664 75.6044C302.664 77.7387 302.539 79.9734 302.363 82.3337C302.012 87.0291 301.384 92.0008 301.409 97.6002C301.434 98.3283 301.434 99.0314 301.484 99.7847L301.66 101.919C301.76 103.049 301.836 104.38 301.886 105.66C301.961 108.247 302.012 110.883 302.012 113.57C301.961 118.893 301.76 124.317 301.183 129.64C300.631 134.888 299.727 140.236 297.969 144.404L297.693 145.032L297.542 145.308C297.492 145.358 297.442 145.383 297.391 145.434C296.714 146.036 296.061 146.664 295.358 147.191C294.655 147.744 294.027 148.371 293.374 148.924C292.696 149.426 292.093 150.054 291.466 150.556C290.838 151.058 290.286 151.61 289.708 152.088C287.523 153.996 285.942 155.628 285.942 155.628C285.942 155.628 286.494 155.754 287.448 155.829C288.051 155.879 288.854 155.904 289.733 155.829C289.608 155.979 289.457 156.155 289.331 156.306C287.097 158.842 284.912 161.303 282.753 163.713C281.121 165.019 279.413 166.375 277.63 167.806L277.881 157.235L278.107 156.934C278.66 156.231 278.986 155.276 279.011 154.272L279.087 151.41C279.137 149.577 278.233 148.02 276.952 147.643L277.58 118.993C278.961 113.394 280.367 108.071 281.648 105.058C284.636 98.0019 287.724 95.3403 288.453 83.9407C289.055 84.2671 289.633 84.5935 290.16 84.8948C291.34 85.4472 292.319 85.9745 292.972 86.3763C293.7 86.7278 294.127 86.9287 294.127 86.9287C294.127 86.9287 293.951 86.5018 293.625 85.7485C293.248 85.0455 292.646 84.0662 291.842 82.9363C290.963 81.8817 289.808 80.7518 288.528 79.5967C287.473 78.8435 286.343 78.0902 285.163 77.3871C286.569 77.0105 287.599 76.3577 288.176 75.7801C288.804 75.0269 288.904 74.5247 288.904 74.5247C288.904 74.5247 288.478 74.8511 287.699 75.0519C286.971 75.303 285.841 75.3784 284.636 75.0017C283.406 74.8008 282.025 74.148 280.217 73.47C278.384 72.9427 276.375 72.541 274.366 72.2899C272.332 72.2397 270.298 72.3904 268.415 72.6414C268.114 72.7168 267.838 72.7921 267.536 72.8674C265.779 72.9177 263.494 73.6709 261.159 73.6709C259.853 73.6709 258.849 72.4155 258.623 71.1098C258.974 70.005 260.029 69.101 261.46 68.5737C263.243 67.8958 265.477 67.494 267.612 67.3183C269.771 67.042 271.956 66.9667 274.04 67.0672C276.099 67.1676 278.057 67.1927 279.74 67.3183C281.422 67.4689 282.828 67.4689 283.832 67.5443C284.837 67.5694 285.389 67.5945 285.389 67.5945C285.389 67.5945 284.837 67.4187 283.908 67.1174C282.954 66.8663 281.598 66.4143 279.94 66.0628C278.283 65.7364 276.325 65.2593 274.165 65.1086C272.031 64.9329 269.696 64.8826 267.386 65.0835C265.051 65.4099 262.816 65.887 260.707 66.791C260.179 67.0421 259.652 67.3183 259.2 67.6949C257.894 66.4394 256.087 64.0289 258.146 60.5638ZM263.619 18.9074L264.724 17.8026L263.67 16.748C263.67 15.5678 264.222 15.2414 264.674 15.0405H270.449L269.52 17.3757C269.018 17.4259 268.39 17.5012 267.737 17.5515C266.381 17.677 265 17.8277 265 17.8277C265 17.8277 266.356 17.9783 267.712 18.129C268.34 18.2043 268.968 18.2545 269.445 18.3047L270.725 24.6574H265.176C264.147 24.6323 263.619 18.9074 263.619 18.9074ZM273.688 15.6432C273.588 15.4925 273.437 15.3418 273.261 15.2163C273.161 15.141 273.06 15.0656 272.96 14.9903C272.91 14.9401 272.86 14.8899 272.834 14.8397C272.809 14.7643 272.784 14.7141 272.809 14.6388C272.91 14.8648 273.186 14.8145 273.412 14.8899C273.663 14.9401 273.914 15.0405 274.165 15.2414C274.391 15.4172 274.567 15.6934 274.667 15.9696C274.768 16.2458 274.818 16.522 274.843 16.7731L274.868 16.9237L274.718 17.0995C274.517 17.3506 274.266 17.5766 274.04 17.8277C274.291 18.0788 274.517 18.3299 274.743 18.6061L274.893 18.7818L274.868 18.9576C274.843 19.2087 274.768 19.4347 274.693 19.6607C274.617 19.8866 274.391 23.8539 274.241 24.0548C274.115 24.2557 273.939 24.4314 273.738 24.557C273.638 24.6072 273.512 24.6574 273.387 24.6825C273.261 24.7076 273.161 24.6825 273.06 24.6574C273.286 24.5821 273.412 24.4565 273.512 24.3059C273.613 24.1552 273.663 23.9795 273.713 23.8037C273.764 23.6279 273.889 19.6858 273.914 19.4849C273.939 19.3593 273.939 19.2338 273.939 19.1334C273.588 18.832 273.261 18.5307 272.935 18.2043L272.558 17.8277L272.935 17.451C273.261 17.1497 273.563 16.8484 273.889 16.5471C273.889 16.1956 273.839 15.8942 273.688 15.6432ZM274.542 129.765C274.592 127.33 274.617 124.869 274.718 122.534C274.768 121.354 274.818 120.199 274.843 119.119C274.893 118.039 274.969 116.96 274.919 116.106C274.843 114.825 274.642 113.72 274.391 112.816C274.592 112.816 274.743 112.842 274.893 112.842C275.22 113.67 275.546 114.649 275.722 115.93C275.873 116.985 275.848 118.014 275.873 119.144C275.873 120.249 275.898 121.379 275.898 122.559C275.923 124.894 275.873 127.355 275.848 129.79C275.772 134.561 275.571 139.232 275.345 142.672C275.119 146.036 274.893 148.246 274.893 148.246C274.893 148.246 274.743 146.036 274.642 142.672C274.542 139.206 274.492 134.561 274.542 129.765ZM277.856 97.0729C277.254 98.253 276.576 99.6089 275.898 101.116C276.3 96.5707 276.852 89.3392 276.952 83.9909C276.952 83.4636 276.952 82.9112 276.952 82.3588C278.384 83.4636 279.991 84.3926 281.522 85.1208C280.97 90.9211 279.664 93.5074 277.856 97.0729ZM270.6 85.7988C270.575 93.6831 269.846 99.4834 269.445 102.17H265.176C264.825 98.027 264.197 89.741 264.147 84.016C264.147 83.4887 264.172 83.0367 264.197 82.5848C265.653 82.8359 268.214 83.313 270.6 84.016C270.6 84.5684 270.6 85.1459 270.6 85.7988ZM270.625 107.518H265.176H264.071C264.046 105.259 265.402 104.832 265.402 104.832H269.746C270.047 105.585 270.424 106.64 270.625 107.518ZM274.969 85.8992C274.969 86.2256 274.969 86.5269 274.969 86.8283C274.818 90.7202 274.416 94.4866 274.015 97.2486C273.613 99.9604 273.236 101.743 273.236 101.743C273.236 101.743 273.186 99.9103 273.211 97.1231C273.236 94.336 273.387 90.5444 273.512 86.7529C273.538 86.1754 273.538 85.6481 273.563 85.1208C274.09 85.3719 274.567 85.623 274.969 85.8992ZM262.665 158.917C264.749 159.344 268.239 159.595 271.227 159.721C271.152 171.849 270.876 214.685 270.725 235.3C270.499 235.25 270.273 235.25 270.047 235.225C270.072 234.873 270.072 234.522 270.098 234.145C270.374 227.516 270.575 218.175 270.65 208.207C270.7 197.586 270.575 186.236 270.349 177.172C270.248 172.451 270.047 168.434 269.947 165.571C269.821 162.659 269.721 160.951 269.721 160.951C269.721 160.951 269.646 162.633 269.495 165.571C269.395 168.434 269.169 172.476 269.043 177.172C268.767 186.236 268.591 197.586 268.591 208.207C268.616 218.15 268.767 227.491 269.018 234.145C269.018 234.497 269.043 234.798 269.043 235.149C267.135 235.174 265.402 235.827 263.971 236.882C263.644 216.543 262.891 172.627 262.665 158.917ZM363.655 375.109C363.354 375.134 363.053 375.159 362.726 375.21C359.713 375.461 355.369 375.486 350.171 375.511C344.949 375.486 338.872 375.461 332.369 375.436C329.105 375.436 325.74 375.385 322.325 375.41C321.045 375.41 319.739 375.41 318.458 375.41C318.458 375.36 318.458 375.335 318.458 375.285C318.458 374.406 318.132 373.628 317.605 373C324.133 373 329.883 372.975 334.88 372.975C355.645 372.975 363.68 373.176 363.68 374.933C363.655 375.009 363.655 375.059 363.655 375.109ZM233.463 565.338C233.739 565.463 234.015 565.589 234.317 565.689C234.342 565.689 234.392 565.714 234.417 565.74C238.485 570.058 241.272 576.11 241.598 582.714C243.08 576.537 242.377 569.581 239.414 563.304L240.142 562.777C241.523 561.823 242.929 560.893 244.36 560.14C245.39 559.588 246.696 558.985 247.499 558.985C248.278 559.01 249.357 559.713 250.236 560.441C252.019 562.023 253.525 563.982 254.856 566.016C257.468 570.109 259.301 574.603 260.23 579.123C260.506 580.253 260.606 581.383 260.782 582.513C260.832 583.065 260.807 583.617 260.832 584.17C260.882 584.722 260.807 585.25 260.707 585.777C260.456 587.936 259.476 589.92 258.296 591.703C255.886 595.293 252.647 598.181 249.734 601.119C246.796 604.031 244.059 606.994 241.875 610.108C240.745 611.665 239.841 613.272 238.962 614.853C238.209 616.486 237.48 618.068 236.777 619.574C236.325 620.704 235.647 621.708 234.995 622.663C234.97 622.437 234.944 622.236 234.919 622.01C234.292 616.661 233.312 609.43 231.404 602.374C229.571 595.293 226.483 588.614 223.62 584.094C222.214 581.81 220.883 580.027 219.929 578.796C218.95 577.591 218.397 576.913 218.397 576.913C218.397 576.913 218.799 577.692 219.502 579.073C220.18 580.454 221.109 582.437 222.013 584.898C223.871 589.794 225.428 596.524 225.805 603.353C226.231 610.158 225.779 617.038 225.353 622.211C224.951 626.554 224.65 629.643 224.549 630.597C220.958 631.928 217.318 632.531 214.279 632.782C214.079 630.547 213.652 628.136 212.848 625.651C211.517 622.06 209.559 618.67 208.228 615.305C206.721 612.066 205.843 608.551 205.441 605.111C205.24 603.906 205.089 602.751 204.989 601.596C205.416 598.733 205.943 595.896 206.646 593.084C207.425 589.87 208.178 586.731 208.931 583.668C209.735 580.604 210.387 577.566 210.965 574.653C211.593 571.766 211.969 568.979 212.271 566.392C212.421 565.036 212.547 563.731 212.622 562.5C213.627 560.693 214.807 558.885 216.062 557.102C216.514 559.638 217.217 562.375 218.272 565.137C219.678 568.903 221.536 572.745 223.444 576.511C225.453 580.228 227.487 583.919 229.169 587.459C230.852 591 232.358 594.314 233.262 597.327C234.216 600.315 234.794 602.851 235.07 604.684C235.346 606.492 235.421 607.572 235.421 607.572C235.421 607.572 235.522 606.517 235.522 604.659C235.447 602.801 235.296 600.114 234.518 597.001C233.764 593.887 232.634 590.297 230.977 586.656C229.345 583.015 227.386 579.248 225.478 575.507C223.495 571.791 221.586 568.075 220.13 564.459C218.849 561.32 217.845 558.307 217.217 555.545C219.05 553.059 220.984 550.724 222.817 548.64C222.691 547.159 222.591 545.677 222.515 544.171C222.49 541.961 222.54 539.726 222.591 537.667C222.641 535.583 222.917 533.65 223.068 532.018C223.243 530.36 223.545 529.004 223.695 528.05C223.896 527.096 224.022 526.544 224.022 526.544C224.022 526.544 224.072 527.096 224.147 528.075C224.172 529.03 224.323 530.436 224.348 532.068C224.398 533.7 224.474 535.633 224.549 537.692C224.574 539.751 224.65 541.936 224.775 544.12C224.8 546.305 224.825 548.514 224.976 550.523C225.127 552.532 225.277 554.39 225.729 555.922C225.93 556.625 226.131 557.278 226.357 557.855C227.06 559.437 227.964 560.919 229.169 562.174C229.998 563.053 230.952 563.856 231.982 564.509C232.358 564.76 232.911 565.062 233.463 565.338ZM187.563 419.251C187.563 418.322 188.141 417.544 188.944 417.218L188.417 418.799C188.291 419.176 188.341 419.553 188.492 419.879C188.241 419.904 187.965 419.904 187.714 419.929C187.613 419.703 187.563 419.477 187.563 419.251ZM96.3908 338.876C96.7424 338.173 97.119 337.445 97.4705 336.642C102.819 341.262 115.424 343.923 135.109 344.526C137.872 344.601 140.533 344.651 143.145 344.651C174.28 344.651 194.995 338.876 204.487 335.486C204.637 336.591 204.763 337.872 204.713 339.303C195.824 342.768 171.242 350.502 132.222 349.272C104.727 348.418 97.1692 343.798 95.1354 341.714C95.6627 340.483 96.0895 339.504 96.3908 338.876ZM255.434 202.206C255.861 201.905 256.312 201.553 256.689 201.277L257.719 200.423C258.397 199.846 259.1 199.293 259.702 198.741C259.727 198.716 259.753 198.691 259.778 198.665C260.129 198.389 260.481 198.088 260.832 197.812L261.862 239.167C260.958 240.548 260.43 242.18 260.43 243.913C260.43 244.088 260.481 244.264 260.481 244.44L228.918 264.201C226.784 265.532 226.156 268.344 227.487 270.478C227.763 270.905 228.09 271.257 228.466 271.558V286.373V301.162L213.953 343.747C213.074 341.613 212.271 339.981 211.568 338.801C211.568 337.495 211.492 336.265 211.342 335.185C221.235 325.92 228.416 305.832 224.524 295.663C222.063 289.21 221.134 284.163 222.415 272.738C222.691 271.181 222.967 269.625 223.269 267.992C223.57 266.536 223.921 265.055 224.273 263.824C224.65 262.519 225.001 261.715 225.503 260.861C226.031 259.983 227.211 258.25 228.19 256.442C228.667 255.563 229.119 254.584 229.596 253.605L230.123 252.425L230.425 251.696L230.701 250.968C233.789 243.26 234.342 235.601 235.522 229.299C235.773 227.717 236.099 226.16 236.426 224.804L236.652 223.85L237.029 222.595C237.204 221.992 237.405 221.565 237.606 221.013C238.585 218.879 240.042 216.493 241.925 214.258C243.808 212.024 245.917 209.864 248.152 207.855C249.282 206.876 250.437 205.897 251.592 205.018L253.249 203.763L254.254 203.06L255.434 202.206ZM317.027 375.41C316.751 375.41 316.475 375.41 316.198 375.41C316.198 375.335 316.224 375.285 316.224 375.21L316.123 373.552C316.65 373.954 317.027 374.557 317.027 375.285C317.052 375.335 317.027 375.385 317.027 375.41ZM312.658 375.31C312.658 374.682 312.909 374.13 313.336 373.728L313.436 375.385C313.436 375.41 313.436 375.41 313.436 375.436C313.185 375.436 312.934 375.436 312.683 375.436C312.683 375.385 312.658 375.335 312.658 375.31ZM265.427 368.48C265.427 367.551 266.005 366.773 266.808 366.446L266.281 368.028C266.155 368.405 266.206 368.782 266.356 369.108C266.105 369.133 265.829 369.133 265.578 369.158C265.503 368.957 265.427 368.731 265.427 368.48ZM269.821 368.48C269.821 368.656 269.771 368.807 269.721 368.957C269.445 368.957 269.169 368.982 268.892 368.982C268.892 368.957 268.917 368.957 268.917 368.932L269.445 367.35C269.671 367.702 269.821 368.078 269.821 368.48ZM311.955 368.782C307.109 368.782 302.664 368.782 298.572 368.782C295.132 368.782 291.943 368.782 289.03 368.782C281.397 368.782 275.596 368.807 271.202 368.932C271.227 368.782 271.253 368.656 271.253 368.505C271.253 367.426 270.776 366.471 270.022 365.819L306.757 257.949L313.06 368.832C312.683 368.782 312.306 368.782 311.955 368.782ZM275.672 243.887C275.672 247.453 272.759 250.366 269.194 250.366C265.628 250.366 262.715 247.453 262.715 243.887C262.715 240.322 265.628 237.409 269.194 237.409C272.759 237.409 275.672 240.322 275.672 243.887ZM230.123 266.134L260.958 246.8C261.083 247.127 261.209 247.453 261.359 247.779L231.756 268.168L262.59 249.637C262.891 249.964 263.192 250.265 263.519 250.567L232.534 270.001C232.182 270.227 231.756 270.353 231.329 270.353C230.55 270.353 229.822 269.951 229.395 269.298C228.742 268.218 229.069 266.812 230.123 266.134ZM182.365 425.705C182.365 423.947 190.375 423.746 211.166 423.746C217.544 423.746 225.152 423.771 234.091 423.771C234.141 423.771 234.191 423.771 234.241 423.771C233.714 424.399 233.388 425.177 233.388 426.056C233.388 426.106 233.388 426.131 233.413 426.182C230.174 426.182 226.935 426.182 223.746 426.156C220.331 426.106 216.966 426.182 213.702 426.182C207.199 426.207 201.097 426.232 195.899 426.257C190.702 426.232 186.358 426.207 183.345 425.956C183.018 425.931 182.717 425.905 182.416 425.855C182.365 425.805 182.365 425.755 182.365 425.705ZM191.606 418.121C191.807 418.448 191.957 418.825 191.957 419.251C191.957 419.427 191.907 419.578 191.857 419.728C191.581 419.728 191.304 419.754 191.028 419.754C191.028 419.728 191.053 419.728 191.053 419.703L191.606 418.121ZM234.794 426.182C234.794 426.131 234.769 426.106 234.769 426.056C234.769 425.428 235.02 424.876 235.447 424.474L235.547 426.131C235.547 426.156 235.547 426.156 235.547 426.182C235.296 426.182 235.07 426.182 234.794 426.182ZM206.596 419.528C204.939 419.528 203.407 419.528 201.951 419.553C202.076 419.025 202.227 418.448 202.327 417.921C202.855 415.686 203.206 413.627 203.457 411.769C203.733 409.936 203.934 408.329 204.035 406.998C204.261 404.336 204.311 402.805 204.311 402.805C204.311 402.805 202.001 408.404 198.586 416.74C198.209 417.669 197.783 418.624 197.381 419.578C195.899 419.603 194.569 419.628 193.338 419.653C193.363 419.503 193.388 419.377 193.388 419.226C193.388 418.147 192.911 417.192 192.158 416.54L205.14 378.474C206.144 395.674 206.546 412.095 206.596 419.528ZM185.68 420.105C185.856 419.703 186.006 419.327 186.182 418.925C186.182 419.025 186.157 419.126 186.157 419.251C186.157 419.528 186.182 419.779 186.257 420.055C186.056 420.055 185.881 420.08 185.68 420.105ZM252.948 436.979C252.32 437.004 251.717 437.029 251.065 437.029C248.353 437.054 245.566 437.104 242.728 437.129C239.866 437.129 236.978 437.129 234.091 437.154C231.203 437.154 228.316 437.154 225.478 437.154C222.641 437.129 219.829 437.079 217.142 437.054C214.43 436.979 211.819 436.878 209.358 436.803C206.897 436.652 204.562 436.527 202.428 436.326C198.134 435.899 194.619 435.271 192.233 434.468C191.028 434.091 190.124 433.714 189.496 433.413C188.894 433.112 188.567 432.936 188.567 432.936C183.596 429.32 182.642 428.291 182.466 426.634C182.717 426.709 182.943 426.759 183.219 426.834C186.232 427.563 190.576 428.241 195.799 428.793C198.41 429.069 201.248 429.32 204.236 429.521C207.224 429.722 210.387 429.948 213.652 430.074C216.916 430.199 220.306 430.375 223.721 430.425C227.161 430.475 230.626 430.525 234.116 430.601C237.606 430.551 241.096 430.5 244.536 430.425C247.976 430.375 251.341 430.199 254.605 430.074C257.869 429.948 261.033 429.747 264.021 429.521C267.009 429.32 269.846 429.069 272.458 428.793C274.542 428.567 276.45 428.341 278.233 428.09C273.964 430.877 266.457 435.045 252.948 436.979ZM239.163 426.182C238.887 426.182 238.61 426.182 238.334 426.182C238.334 426.106 238.359 426.056 238.359 425.981L238.259 424.323C238.786 424.725 239.163 425.328 239.163 426.056C239.188 426.106 239.163 426.131 239.163 426.182ZM234.066 419.553C229.496 419.553 225.302 419.553 221.436 419.553C221.536 405.014 221.611 388.769 220.431 375.134C219.352 362.705 217.443 354.017 215.485 347.991L228.868 308.695L235.17 419.578C234.794 419.553 234.442 419.553 234.066 419.553ZM231.278 286.373V272.613C231.304 272.613 231.329 272.613 231.329 272.613C232.157 272.613 232.986 272.387 233.739 271.91L265.628 251.897C266.708 252.374 267.888 252.651 269.143 252.651C273.864 252.651 277.706 248.884 277.856 244.214L306.305 226.386V235.626V250.416L267.31 364.94C265.452 365.09 263.996 366.622 263.996 368.505C263.996 368.782 264.021 369.033 264.096 369.309C262.665 369.434 261.184 369.685 259.878 370.137L231.278 301.112V286.373ZM261.485 374.004C264.448 373.125 272.86 373 289.005 373C295.383 373 302.991 373.025 311.93 373.025C311.98 373.025 312.03 373.025 312.08 373.025C311.553 373.653 311.227 374.431 311.227 375.31C311.227 375.36 311.227 375.385 311.252 375.436C308.013 375.436 304.774 375.435 301.585 375.41C298.17 375.36 294.805 375.436 291.541 375.436C285.038 375.461 278.936 375.486 273.738 375.511C268.968 375.486 265 375.461 262.037 375.26L261.485 374.004ZM355.294 369.008C355.043 369.008 354.792 368.982 354.515 368.982C354.465 368.832 354.415 368.656 354.415 368.48C354.415 368.129 354.515 367.802 354.666 367.501L355.294 369.008ZM353.059 368.932C348.615 368.807 342.714 368.782 334.88 368.782C331.942 368.782 328.778 368.782 325.313 368.782C322.375 368.782 319.212 368.782 315.872 368.782L309.62 258.828L354.038 365.969C353.41 366.622 353.009 367.501 353.009 368.48C353.009 368.631 353.034 368.782 353.059 368.932ZM307.686 220.159C308.364 221.214 308.038 222.62 306.958 223.298L278.785 240.975C278.735 240.573 278.635 240.196 278.509 239.82L307.084 220.134L277.53 237.911C277.304 237.56 277.103 237.233 276.827 236.832L304.573 219.431C304.924 219.205 305.351 219.079 305.778 219.079C306.531 219.104 307.259 219.506 307.686 220.159ZM17.0703 453.024V452.973C17.0954 452.973 17.1456 452.973 17.1707 452.973L17.0703 453.024ZM23.5987 484.586C25.8837 483.632 28.721 483.105 31.8346 482.954L114.269 733.094L112.16 740.4L104.853 735.353L17.5976 487.8C19.4055 486.67 21.4142 485.49 23.5987 484.586ZM35.4252 482.979C37.3838 483.105 38.6895 483.331 38.7146 483.331C38.9154 483.381 39.1414 483.381 39.3423 483.381C40.0454 483.381 40.7233 483.155 41.3008 482.753C42.0541 482.226 42.5563 481.397 42.707 480.493C42.7823 480.041 43.3849 475.999 42.707 472.207C41.7779 467.085 35.9274 466.834 32.0606 466.683C30.9056 466.633 29.0475 466.557 28.1937 466.331C26.6621 462.138 25.0048 458.096 23.8749 455.409C26.3859 453.601 28.495 450.337 28.5955 444.763C28.7712 435.246 21.3891 425.077 17.472 421.059C17.246 420.808 17.1707 420.708 17.1707 420.708C16.769 419.427 18.376 413.677 19.9579 408.128L20.4098 406.521C23.5234 395.448 34.1447 377.545 41.2004 365.693L43.184 362.354C50.4909 349.975 59.2289 332.599 62.2421 324.438C63.9244 319.919 69.2727 310.277 73.9933 301.79C77.0315 296.341 79.894 291.219 82.0031 287.076C84.7401 281.727 88.1298 276.53 90.7161 272.813C90.691 273.692 90.6408 274.621 90.5906 275.576C90.2892 280.622 89.1342 282.631 88.1047 284.414C86.2466 287.628 84.6145 291.495 87.8034 297.17C86.2215 299.806 85.9955 303.146 87.0752 307.238C87.1255 307.389 87.1506 307.54 87.1757 307.665C85.5938 309.448 84.263 312.16 84.0621 316.931C84.0119 318.337 83.8361 322.605 86.799 325.719C88.4814 327.451 90.7914 328.431 93.3275 328.431C93.3526 328.431 93.3777 328.431 93.3777 328.431C92.6746 330.665 91.6452 333.277 90.3646 335.738C86.548 343.07 73.9179 383.797 71.0555 403.684C70.2017 409.634 69.1722 415.334 68.0674 421.361C65.5314 435.472 62.8949 450.036 62.0412 469.897C60.7606 499.526 72.5871 546.229 79.1658 557.554C84.8154 567.271 92.2478 592.456 90.7663 605.161C90.5152 607.245 89.7871 609.179 88.8329 611.639C86.6735 617.264 84.0119 624.244 86.0709 636.322C86.096 636.473 86.096 636.598 86.1211 636.724L35.4252 482.979ZM285.791 425.855C285.49 425.88 285.188 425.905 284.862 425.956C281.849 426.207 277.505 426.232 272.307 426.257C267.084 426.232 261.008 426.207 254.505 426.182C251.24 426.182 247.876 426.131 244.461 426.156C243.18 426.156 241.875 426.156 240.594 426.156C240.594 426.106 240.594 426.081 240.594 426.031C240.594 425.152 240.268 424.374 239.74 423.746C246.269 423.746 252.019 423.721 257.016 423.721C277.781 423.721 285.816 423.922 285.816 425.679C285.791 425.755 285.791 425.805 285.791 425.855ZM277.404 419.754C277.153 419.754 276.902 419.728 276.626 419.728C276.576 419.578 276.526 419.402 276.526 419.226C276.526 418.875 276.626 418.548 276.777 418.247L277.404 419.754ZM275.195 419.678C270.75 419.553 264.85 419.528 257.016 419.528C254.078 419.528 250.914 419.528 247.449 419.528C244.511 419.528 241.347 419.528 238.008 419.528L231.756 309.574L257.417 371.493C256.538 372.297 256.011 373.402 256.011 374.933C256.011 379.353 258.07 381.261 262.966 384.877L276.174 416.715C275.546 417.368 275.145 418.247 275.145 419.226C275.145 419.402 275.17 419.528 275.195 419.678ZM262.489 376.365C265.377 376.967 269.143 377.545 273.588 377.997C276.199 378.273 279.036 378.524 282.025 378.725C285.013 378.926 288.176 379.152 291.441 379.277C294.705 379.403 298.095 379.579 301.509 379.629C304.949 379.679 308.414 379.729 311.905 379.805C315.395 379.754 318.885 379.704 322.325 379.629C325.765 379.579 329.13 379.403 332.394 379.277C335.658 379.152 338.822 378.951 341.81 378.725C344.798 378.524 347.635 378.273 350.247 377.997C352.331 377.771 354.239 377.545 356.022 377.294C351.778 380.106 344.271 384.299 330.737 386.233C330.109 386.258 329.506 386.283 328.854 386.283C326.142 386.308 323.355 386.358 320.517 386.383C317.655 386.383 314.767 386.383 311.88 386.408C308.992 386.408 306.104 386.408 303.267 386.408C300.43 386.383 297.617 386.333 294.931 386.308C292.219 386.233 289.608 386.132 287.147 386.057C284.686 385.906 282.351 385.781 280.217 385.58C275.923 385.153 272.408 384.525 270.022 383.722C268.817 383.345 267.913 382.968 267.285 382.667C266.683 382.366 266.356 382.19 266.356 382.19C265.503 381.587 264.825 381.06 264.172 380.583L262.489 376.365ZM358.809 368.48C358.809 368.731 358.734 368.957 358.658 369.183C358.357 369.158 358.081 369.133 357.805 369.133C357.98 368.782 358.031 368.355 357.88 367.953L357.252 366.421C358.156 366.697 358.809 367.501 358.809 368.48ZM274.969 192.413C274.893 197.762 274.818 203.26 274.743 208.609C274.617 213.756 274.517 218.753 274.391 223.298C274.266 227.692 274.14 231.684 274.04 235.024C274.04 235.35 274.015 235.626 274.015 235.953L273.512 236.254C273.512 235.852 273.512 235.451 273.512 235.024C273.512 231.684 273.538 227.692 273.563 223.298C273.613 218.753 273.663 213.781 273.713 208.609C273.814 203.286 273.939 197.762 274.04 192.413C274.19 186.889 274.341 181.566 274.467 176.871C274.592 172.049 274.793 167.906 274.893 164.969C275.019 161.981 275.069 160.223 275.069 160.223C275.069 160.223 275.069 161.956 275.094 164.969C275.094 167.906 275.145 172.049 275.119 176.871C275.044 181.566 275.019 186.889 274.969 192.413ZM274.893 33.044C274.617 32.9937 274.366 32.9686 274.09 32.9435C274.065 31.914 274.04 30.9348 274.015 30.0811C273.99 29.3027 273.964 28.6498 273.964 28.1476C274.04 28.1476 274.14 28.1476 274.216 28.1476C274.316 28.6498 274.467 29.2775 274.592 30.0308C274.743 30.9096 274.868 31.9391 274.969 33.0691C274.944 33.0439 274.893 33.044 274.893 33.044ZM262.64 6.67911C262.715 6.30246 262.841 5.90071 263.067 5.47385C263.519 4.64524 264.348 3.81663 265.452 3.33955C266.005 3.08846 266.582 2.88759 267.185 2.81226C267.788 2.68671 268.415 2.6616 269.018 2.63649C270.248 2.6616 271.504 2.83736 272.583 3.33955C273.663 3.81663 274.517 4.64524 274.969 5.47385C275.195 5.90071 275.32 6.30246 275.396 6.67911C275.471 7.05575 275.496 7.35705 275.496 7.63326C275.521 7.90946 275.471 8.08522 275.471 8.23588C275.471 8.38653 275.446 8.43675 275.446 8.43675C275.446 8.43675 275.421 8.36142 275.396 8.23588C275.371 8.11033 275.345 7.88435 275.27 7.65837C275.22 7.40728 275.119 7.13106 274.994 6.80464C274.843 6.47822 274.667 6.1518 274.416 5.82538C273.914 5.17253 273.161 4.56991 272.182 4.21838C271.73 4.04261 271.227 3.91706 270.725 3.84173C273.035 5.6245 274.165 10.5208 270.223 12.7556H264.674C263.896 11.5252 262.54 10.9477 262.54 8.48698C262.54 8.48698 262.54 8.41165 262.515 8.2861C262.515 8.13545 262.464 7.93456 262.489 7.68347C262.515 7.38215 262.565 7.05575 262.64 6.67911ZM264.875 27.4948C266.406 27.7208 268.365 27.8714 270.223 27.9719C270.424 28.9762 270.625 30.5079 270.75 32.4664C268.44 32.1149 266.557 31.7634 265.226 31.2863C265.025 31.211 264.774 31.1608 264.573 31.0854C264.649 29.7546 264.774 28.5243 264.875 27.4948ZM251.793 40.401C251.868 37.9654 255.132 37.0112 258.346 37.0112C260.029 37.0112 261.711 37.2623 262.866 37.6892C264.774 38.3923 267.084 38.8191 269.872 39.246C267.26 39.5473 264.699 39.8486 262.213 40.4512C259.577 41.079 257.216 42.6357 256.036 44.5692C255.861 44.8203 255.735 45.0964 255.609 45.3475C254.203 44.6194 251.717 43.0375 251.793 40.401ZM263.218 118.265C263.192 115.779 263.87 113.469 264.448 111.762C265.779 112.088 267.562 112.314 269.294 112.465C269.369 113.52 269.445 115.152 269.395 117.11C269.319 118.843 269.118 120.927 269.043 123.111C268.943 125.271 268.892 127.556 268.892 129.79C268.867 134.21 269.018 138.554 269.269 141.717C269.495 144.856 269.821 146.915 269.821 146.915C269.821 146.915 270.148 144.856 270.399 141.717C270.65 138.528 270.826 134.21 270.826 129.79C270.851 125.246 270.625 120.651 270.324 117.06C270.148 115.051 269.846 113.494 269.595 112.49C270.047 112.54 270.474 112.565 270.926 112.59C271.253 114.072 271.529 115.804 271.529 117.537C271.504 120.977 271.378 142.722 271.328 148.773H263.695C263.544 141.843 263.268 121.655 263.218 118.265ZM239.69 166.149C242.578 164.868 251.065 158.415 258.648 152.113L258.698 154.197C258.723 155.201 259.049 156.155 259.602 156.858L259.828 157.16L260.43 181.214C258.623 182.595 256.79 184.027 254.906 185.408C253.676 186.312 252.446 187.216 251.19 188.145C250.562 188.622 249.96 189.023 249.357 189.425L248.453 190.053C248.152 190.254 247.951 190.354 247.7 190.505L246.796 191.057L245.716 191.66C245.34 191.886 244.938 192.112 244.561 192.363C244.687 192.564 244.838 192.79 244.963 192.991C245.767 194.096 246.419 195.225 247.122 196.104C247.8 196.983 248.303 197.787 248.729 198.314C249.106 198.866 249.332 199.168 249.332 199.168C249.332 199.168 249.006 198.967 248.428 198.615C247.876 198.239 247.047 197.736 246.193 196.958C245.34 196.18 244.31 195.301 243.406 194.171C242.502 193.041 241.598 191.811 240.745 190.505C239.991 189.149 239.313 187.768 238.761 186.437C238.686 186.261 238.661 186.111 238.585 185.96C238.083 184.855 237.656 183.7 237.305 182.52C236.401 180.235 235.773 177.825 235.447 175.515C234.97 173.23 234.769 170.995 234.769 169.087C234.744 168.61 234.718 168.158 234.693 167.731C236.627 167.229 238.334 166.751 239.69 166.149ZM229.044 168.911C228.993 168.961 228.968 169.011 228.918 169.061C228.868 169.137 228.793 169.212 228.742 169.313C228.818 169.237 228.893 169.187 228.968 169.137C229.069 169.061 229.144 168.986 229.219 168.886C230.299 168.66 231.354 168.434 232.358 168.233C232.308 168.434 232.233 168.61 232.182 168.836C231.781 170.869 231.479 173.28 231.479 175.916C231.63 178.528 232.132 181.315 232.961 184.027C233.99 186.663 235.346 189.149 236.853 191.283C238.033 192.765 239.263 194.07 240.443 195.175C239.866 195.602 239.263 195.979 238.711 196.431C237.932 197.033 237.154 197.661 236.401 198.289C236.275 198.013 236.125 197.762 235.999 197.435C235.271 196.23 234.568 194.723 233.865 193.141C233.061 191.61 232.308 189.927 231.655 188.22C230.852 186.588 230.123 184.88 229.571 183.248C228.893 181.641 228.29 180.11 227.889 178.754C227.311 177.423 226.935 176.268 226.683 175.439C226.357 174.611 226.156 174.134 226.156 174.134C226.156 174.134 226.031 174.636 225.805 175.489C225.654 176.343 225.478 177.599 225.378 179.13C225.378 180.637 225.528 182.395 225.779 184.303C226.206 186.161 226.784 188.094 227.487 190.003C228.416 191.836 229.42 193.568 230.5 195.15C231.73 196.632 232.911 197.937 233.99 198.992C234.292 199.243 234.543 199.419 234.819 199.645C234.392 200.021 233.965 200.448 233.538 200.85C234.292 201.653 234.97 202.457 235.622 203.085C236.351 203.788 236.903 204.491 237.33 204.893C237.732 205.345 237.983 205.621 237.983 205.621C237.983 205.621 237.656 205.495 237.079 205.269C236.526 204.993 235.698 204.667 234.819 204.089C233.94 203.512 232.885 202.859 231.881 201.98C230.902 201.101 229.897 200.097 228.943 199.042C228.09 197.912 227.261 196.757 226.558 195.627C225.855 194.497 225.403 193.342 225.001 192.363C224.574 191.384 224.424 190.505 224.248 189.927C224.122 189.325 224.072 188.973 224.072 188.973L224.097 188.998C224.072 188.923 224.047 188.848 224.022 188.747C223.017 186.236 222.49 183.499 222.39 180.938C222.139 178.377 222.39 175.866 222.741 173.732C222.867 172.401 223.068 171.196 223.243 170.166C225.277 169.689 227.236 169.287 229.044 168.911ZM221.461 170.593C221.084 171.346 220.707 172.15 220.306 173.079C219.527 175.238 218.749 177.9 218.473 180.913C218.347 183.926 218.749 187.165 219.753 190.254C220.13 191.183 220.557 192.087 221.009 192.966C220.507 193.167 220.004 193.342 219.477 193.568C209.509 198.113 204.01 202.733 190.727 213.882C188.341 215.891 185.68 218.125 182.717 220.586C183.345 219.883 183.972 219.18 184.575 218.452C188.392 213.505 191.756 208.182 194.343 202.909C196.803 197.561 198.46 192.338 199.515 187.793C200.042 185.081 200.344 182.696 200.519 180.587C201.649 179.331 203.156 178 205.566 176.594C205.868 176.419 206.169 176.268 206.495 176.092C206.847 175.916 207.173 175.715 207.525 175.54C209.107 174.736 210.865 173.933 212.798 173.205C215.736 172.125 218.674 171.296 221.461 170.593ZM186.584 174.083C187.036 174.535 187.513 174.912 187.99 175.264C187.136 175.113 186.282 174.987 185.479 174.812C185.152 174.485 184.826 174.159 184.55 173.832C184.148 173.28 183.621 172.828 183.294 172.376C182.943 171.924 182.566 171.572 182.365 171.271C182.114 170.995 181.964 170.844 181.964 170.844C181.964 170.844 181.964 171.045 181.939 171.422C181.964 171.773 181.964 172.326 182.139 172.928C182.24 173.255 182.365 173.656 182.516 174.033C182.215 173.933 181.939 173.832 181.713 173.732C181.235 173.506 180.758 173.33 180.281 173.129C180.331 172.275 180.583 171.321 180.834 170.342C181.11 169.338 181.587 168.384 182.24 167.404C182.416 167.078 182.616 166.726 182.792 166.4C182.842 167.429 183.018 168.459 183.37 169.413C184.148 171.246 185.328 172.828 186.584 174.083ZM183.797 159.445C183.546 159.043 183.269 158.742 183.018 158.541C183.119 158.315 183.219 158.064 183.32 157.812C183.546 158.264 183.721 158.817 183.797 159.445ZM187.764 127.455C187.814 126.978 187.839 126.501 187.864 126.024C187.889 125.999 188.04 125.848 188.316 125.572C188.567 125.246 189.019 124.819 189.371 124.191C189.496 123.94 189.672 123.664 189.823 123.388C189.296 125.472 188.542 126.727 187.764 127.455ZM104.652 130.569C104.325 129.64 104.099 128.66 103.924 127.681C103.773 126.702 103.723 125.698 103.773 124.693C103.848 123.689 104.049 122.684 104.426 121.755C104.627 121.303 104.928 120.826 105.179 120.425C105.531 120.048 105.882 119.671 106.259 119.395C106.686 119.169 107.087 118.918 107.464 118.792C107.866 118.717 108.268 118.667 108.594 118.642C107.891 118.315 107.213 117.914 106.61 117.411C105.154 116.307 104.3 114.348 104.526 112.44C104.702 110.657 105.129 108.849 105.807 107.167C106.133 106.313 106.535 105.485 106.962 104.706C107.188 104.304 107.414 103.928 107.64 103.551C106.209 103.099 104.903 102.346 103.823 101.191C102.417 99.6843 101.764 97.5751 101.714 95.6416C101.664 94.6373 101.789 93.7584 101.915 92.7038C102.066 91.8752 102.241 90.9964 102.568 90.0172C103.095 88.1591 104.426 86.3261 105.581 85.0957C106.736 83.8402 107.489 82.635 108.092 81.1535C108.694 79.6972 109.121 78.1153 109.473 76.4832L110 73.922C110.251 72.9177 110.603 71.9384 111.055 71.0596C111.959 69.2517 113.315 67.6196 114.896 66.3892C118.11 63.9034 121.902 62.8739 125.417 62.2211C127.2 61.8695 128.958 61.6687 130.59 61.3925C131.368 61.2669 132.197 61.066 132.548 60.9154C132.498 60.9656 133.101 60.5638 133.377 60.3881L134.432 59.685C137.319 57.6763 140.834 55.6424 144.902 55.1653C146.911 54.9142 148.97 55.09 150.903 55.6173C152.686 56.0944 154.092 56.4208 155.724 56.6217C158.963 57.0987 162.203 56.7221 166.195 57.1741C167.199 57.3247 168.254 57.5507 169.283 58.0278C170.012 58.3793 170.062 58.3793 170.664 58.7811C171.217 59.1326 171.593 59.4841 171.995 59.8106C173.552 61.2418 174.581 62.8488 175.561 64.1294C176.54 65.4602 177.469 66.4143 178.599 66.8663C179.955 67.5191 181.537 67.6698 183.571 68.5235C185.604 69.4023 187.111 70.9842 188.241 72.4657L189.07 73.6458L189.798 74.7506C190.3 75.5793 190.752 76.3827 191.154 77.2867C191.957 79.0192 192.484 81.2791 191.982 83.3883C191.756 84.4178 191.38 85.3217 191.028 86.1503C190.677 86.9538 190.099 87.7573 189.446 88.4102C190.099 88.7868 190.802 89.2137 191.505 89.8163C192.309 90.444 193.087 91.5488 193.288 92.6787C193.514 93.7333 193.338 94.9386 193.263 95.5663C193.238 95.8676 193.288 95.8425 193.288 95.8927C193.313 95.943 193.338 96.0685 193.413 96.194C193.514 96.42 193.79 96.6962 194.091 96.9724C194.669 97.5499 195.573 98.253 195.924 99.4332C196.276 100.613 195.95 101.693 195.598 102.572C195.196 103.476 194.795 104.154 194.468 104.932C193.79 106.489 193.439 108.171 192.585 109.854C192.158 110.682 191.505 111.435 190.727 111.938C189.974 112.415 189.145 112.691 188.316 112.917L187.186 116.256C187.387 116.533 187.563 116.834 187.739 117.135C188.09 117.738 188.316 118.491 188.392 119.27C188.567 120.023 188.567 120.851 188.467 121.605C188.367 122.383 188.316 123.162 188.166 123.814C188.015 124.467 187.965 125.045 187.889 125.447C187.915 124.869 187.99 124.317 188.015 123.714C187.965 122.032 187.789 120.224 187.488 118.617C187.337 117.738 187.211 116.909 187.061 116.056C187.111 116.131 187.161 116.156 187.211 116.231L187.965 112.666L187.99 112.565L188.115 112.515C188.668 112.314 189.195 112.038 189.697 111.737C187.387 110.004 187.563 107.217 188.04 103.099C188.191 101.844 188.341 100.538 188.341 99.3327C188.341 99.2825 188.341 99.2574 188.341 99.2072C188.668 98.3786 189.095 97.1482 189.296 95.8927C189.722 93.7082 189.496 91.6743 189.496 91.6743C189.496 91.6743 188.065 93.1307 186.433 94.0346C185.83 94.3862 185.253 94.6373 184.726 94.8382C183.847 94.7126 182.893 94.7377 181.888 94.7628C179.453 94.8382 176.389 94.9637 172.748 93.0554C171.116 92.2017 169.76 91.4232 168.58 90.7704C164.864 88.6863 162.504 87.3807 159.466 87.6569C160.093 85.9243 160.445 83.8151 160.068 81.706C159.717 79.3959 158.537 77.0105 156.879 75.3784C155.272 73.7463 153.615 72.6666 152.46 71.386C151.28 70.1556 150.652 68.5988 150.476 67.1676C150.276 65.7364 150.502 64.4809 150.753 63.6523C151.004 62.8237 151.255 62.3717 151.255 62.3717C151.255 62.3717 150.928 62.7483 150.476 63.5518C150.05 64.3302 149.522 65.5857 149.422 67.2178C149.271 68.8248 149.623 70.8587 150.728 72.6666C151.782 74.4744 153.314 76.0061 154.243 77.5378C155.197 79.0192 155.523 80.6011 155.448 82.0826C155.348 83.5389 154.82 84.7191 154.193 85.5979C154.117 85.6983 154.042 85.7486 153.967 85.849C153.54 84.6688 152.912 83.5138 152.058 82.4592C150.928 81.0782 149.573 80.0236 148.267 79.0946C145.63 77.3118 143.22 75.7299 141.939 73.8718C141.286 72.993 140.935 72.1142 140.734 71.4613C140.558 70.8085 140.533 70.4318 140.533 70.4318C140.533 70.4318 140.458 70.8085 140.458 71.5115C140.458 72.1895 140.583 73.2189 141.01 74.374C141.763 76.7343 144.023 79.3205 145.957 81.6055C146.886 82.7605 147.714 83.9407 148.141 84.9701C148.568 85.9996 148.694 87.0291 148.618 87.7322C148.568 88.0335 148.518 88.2846 148.443 88.4855C146.66 88.1339 144.526 87.7322 141.588 87.5815C140.558 87.5313 139.705 87.6067 138.951 87.7824C138.047 86.6776 135.511 83.4385 133.528 79.6972C131.017 75.1524 129.535 70.1054 129.535 70.1054C129.535 70.1054 130.439 75.278 132.498 80.1743C133.929 83.79 135.938 87.1296 136.892 88.6612C134.758 90.2431 134.557 93.1307 134.432 94.9386C134.406 95.4157 134.381 95.7923 134.331 96.1439C133.829 96.0936 133.201 96.0183 132.448 95.8676C130.615 95.5161 128.129 94.813 125.894 93.5325C123.609 92.3021 121.576 90.5193 120.37 88.8872C119.768 88.0837 119.316 87.3305 119.039 86.8032C118.788 86.2508 118.638 85.9494 118.638 85.9494C118.638 85.9494 118.688 86.301 118.763 86.9036C118.864 87.5062 119.065 88.385 119.441 89.4145C120.169 91.4484 121.676 94.0598 123.785 96.2192C125.317 97.8764 127.15 99.2574 128.807 100.312C127.401 101.166 126.447 102.07 125.643 102.898C124.614 103.903 123.81 104.706 122.178 105.359C118.588 106.765 117.633 109 116.755 111.159C116.152 112.565 115.549 114.047 114.043 115.804C113.39 116.558 112.561 117.336 111.281 117.437C110.201 117.512 108.393 117.11 105.681 115.127C105.932 115.88 106.384 116.608 106.987 117.185C107.69 117.863 108.519 118.416 109.397 118.868C109.724 118.918 110.025 118.993 110.251 119.094C111.055 119.47 111.456 119.722 111.456 119.722C111.456 119.722 110.954 119.847 110.201 119.998C109.824 120.098 109.397 120.299 108.996 120.475C108.82 120.6 108.644 120.751 108.468 120.902C108.343 121.077 108.217 121.228 108.092 121.429C108.092 121.454 108.067 121.479 108.067 121.504C109.071 121.806 110.05 121.981 111.005 121.981C111.205 121.981 111.406 121.981 111.607 121.956C112.637 121.881 113.541 121.605 114.294 121.253C114.57 121.605 114.871 121.956 115.223 122.383C116.077 123.337 117.081 124.568 118.462 125.873C119.818 127.179 121.651 128.51 123.911 129.464C128.33 131.171 133.929 131.724 139.629 131.448C145.178 130.945 150.728 130.042 156.377 129.313C157.608 129.414 159.641 129.439 162.077 129.489C162.102 129.765 162.152 130.067 162.203 130.368C162.554 132.352 163.307 134.712 164.186 136.896C164.588 138.001 164.864 139.081 164.789 140.161C164.739 140.989 164.487 141.742 164.036 142.295C163.734 142.37 163.383 142.446 162.981 142.521C162.629 142.571 162.228 142.596 161.826 142.571C161.349 142.546 160.847 142.546 160.395 142.596C159.466 142.646 158.461 142.571 157.407 142.496C156.327 142.521 155.197 142.571 154.117 142.747C152.962 142.948 152.184 143.475 151.506 143.626C150.853 143.801 150.301 143.852 149.899 143.651C149.849 143.626 149.824 143.601 149.773 143.575C149.547 143.274 149.397 142.923 149.321 142.571C149.171 141.868 149.271 141.19 149.397 140.663C149.673 139.558 149.924 138.955 149.924 138.955C149.924 138.955 149.522 139.483 148.97 140.512C148.719 141.039 148.443 141.742 148.443 142.646C148.417 143.5 148.794 144.73 149.949 145.358C151.054 145.961 152.309 145.911 153.389 145.986C154.519 146.036 155.699 146.086 156.93 146.061C158.16 146.061 159.39 146.086 160.771 146.036C162.127 145.936 163.734 145.735 165.115 144.655C166.471 143.5 166.998 141.768 167.024 140.286C167.049 138.754 166.597 137.348 166.12 136.168C165.09 133.808 164.01 131.975 163.483 130.092C163.433 129.916 163.383 129.765 163.332 129.59C170.087 129.69 179.151 129.816 183.244 130.845C183.194 131.598 183.144 132.377 183.068 133.105C183.043 133.833 182.993 134.536 182.943 135.214C181.964 139.91 180.332 146.513 177.72 153.519C175.787 158.691 173.577 162.307 171.769 164.642C168.028 167.932 162.629 171.221 156.001 171.221C144.576 171.221 135.11 167.329 127.727 159.671C127.627 159.52 127.501 159.369 127.351 159.193C127.125 158.767 126.899 158.34 126.673 157.863C125.844 156.381 125.066 154.573 124.463 152.565C123.71 150.606 123.082 148.447 122.605 146.237C121.927 144.053 121.375 141.793 120.872 139.658C120.195 137.524 119.567 135.515 119.039 133.808C118.336 132.126 117.709 130.745 117.232 129.79C116.679 128.861 116.378 128.334 116.378 128.334C116.378 128.334 116.378 128.937 116.403 130.016C116.478 131.071 116.529 132.552 116.554 134.335C116.579 134.536 116.579 134.787 116.604 134.988C116.529 134.712 116.453 134.461 116.328 134.21C115.65 133.306 115.323 132.552 115.122 131.623C114.922 130.745 114.796 129.866 114.846 129.112C114.896 128.359 114.972 127.656 115.097 127.204C115.198 126.727 115.298 126.451 115.298 126.451C115.298 126.451 115.072 126.627 114.721 127.003C114.394 127.38 113.892 127.983 113.591 128.836C113.315 129.69 113.013 130.77 113.164 131.95C113.264 133.08 113.767 134.436 114.344 135.34C114.545 135.641 114.62 135.892 114.696 136.444C114.746 136.947 114.896 137.825 115.374 138.428C115.876 139.056 116.202 139.181 116.529 139.508C116.679 139.658 116.805 139.784 116.955 139.935C116.955 140.085 116.981 140.236 116.981 140.387C117.156 141.642 117.382 142.948 117.608 144.279C116.704 143.475 115.524 142.245 114.068 140.361C114.018 140.286 113.993 140.211 113.942 140.135C113.34 139.006 112.812 137.574 112.109 136.168C111.406 134.737 110.753 133.18 110.126 131.573C109.372 130.092 108.845 128.66 108.92 127.48C108.971 126.3 109.372 125.12 110.151 124.643C110.879 124.166 111.984 124.116 112.586 124.442C113.239 124.718 113.49 125.145 113.49 125.145C113.465 125.17 113.541 124.668 113.013 123.94C112.461 123.312 111.205 122.408 109.448 122.885C107.765 123.388 106.259 125.12 106.008 127.179C105.732 129.288 106.384 131.272 107.037 132.954C107.816 134.561 108.669 136.143 109.548 137.574C110.377 139.006 111.482 140.161 112.335 141.165C111.733 140.763 111.055 140.261 110.327 139.583C109.774 139.081 109.247 138.604 108.669 137.926C108.167 137.323 107.615 136.746 107.113 135.917C106.133 134.159 105.28 132.452 104.652 130.569ZM94.9596 190.681C95.6376 189.952 96.667 189.501 97.8472 189.049C99.0022 188.597 100.408 188.145 101.588 187.14C102.643 186.261 103.396 185.157 103.974 184.002C103.999 184.077 103.999 184.152 104.024 184.202C104.3 185.182 104.752 185.91 105.028 186.412C105.355 186.889 105.531 187.165 105.531 187.165C105.531 187.165 105.506 186.839 105.43 186.261C105.33 185.709 105.33 184.88 105.254 183.951C105.179 183.022 105.28 181.917 105.33 180.788C105.355 180.461 105.405 180.135 105.455 179.783C105.832 178.352 106.158 176.946 106.635 175.665C107.439 173.255 108.971 171.045 110.402 168.71C111.833 166.4 113.089 163.738 113.315 160.951C113.44 159.57 113.289 158.114 112.787 156.808C112.26 155.452 111.381 154.498 110.653 153.569C109.096 151.761 107.816 150.154 107.464 148.246C107.037 146.614 107.715 145.007 108.268 143.575C110.527 146.589 112.611 148.798 114.595 150.229C116.303 154.247 118.336 157.712 120.044 160.248C119.768 160.65 119.517 161.102 119.24 161.604C118.588 162.96 117.859 164.592 117.508 166.475C117.131 168.333 117.056 170.417 117.156 172.401C117.332 174.36 117.583 176.243 117.533 177.975C117.508 179.633 117.282 181.189 116.755 182.42C115.399 183.324 113.993 184.278 112.561 185.232C111.708 185.809 110.829 186.412 109.925 187.015C110.327 186.236 110.578 185.458 110.728 184.755C111.055 183.248 110.728 181.943 110.452 181.164C110.101 180.361 109.799 180.009 109.799 180.009C109.799 180.009 109.975 180.461 110.025 181.265C110.126 182.068 109.975 183.198 109.498 184.403C109.046 185.659 108.092 186.814 106.887 187.868C105.681 188.923 104.099 189.752 102.417 190.404C100.76 191.158 99.0022 191.76 97.3199 192.438C95.6376 193.091 94.1561 193.995 92.9508 194.874C92.8755 194.924 92.8253 194.974 92.75 195.025C92.976 194.522 93.2019 193.995 93.3777 193.468C93.8297 192.438 94.2565 191.409 94.9596 190.681ZM69.8 217.548C77.4835 207.881 87.1004 203.989 95.4367 201.729C96.1146 203.712 97.0688 206.223 98.3996 209.061C100.132 212.526 102.518 216.418 105.455 220.335C108.519 224.151 112.134 227.918 116.152 231.283C120.27 234.497 124.714 237.284 129.108 239.468C133.101 241.251 136.892 242.607 140.382 243.536C137.244 244.164 133.728 244.892 129.485 245.997C114.218 249.914 102.894 254.458 96.9935 262.544C96.7926 261.087 96.5415 259.882 96.3155 258.953C96.3657 258.727 96.3908 258.501 96.3908 258.275C96.3657 257.095 95.7631 255.965 94.7838 255.312C94.3067 254.986 93.7543 254.785 93.1517 254.659C92.5993 254.534 91.7456 254.509 91.5949 254.484C90.465 254.433 89.3602 254.258 88.3307 254.007C86.1713 253.63 84.2128 252.826 82.6309 251.922C80.9737 251.119 79.6931 250.19 78.8394 249.462C77.9103 248.784 77.4332 248.332 77.4332 248.332C77.4332 248.332 77.6341 248.96 78.1614 250.039C78.7389 251.069 79.668 252.5 81.1243 254.007C82.656 255.388 84.715 256.794 87.2008 257.798C88.4563 258.225 89.8122 258.551 91.2434 258.727C91.7205 258.777 91.5196 258.777 91.5698 258.802C91.5698 258.828 91.5949 258.828 91.5949 258.853C91.5949 258.878 91.5698 258.928 91.5447 258.928C91.5698 258.928 91.5698 258.928 91.5949 258.928L91.62 258.953C91.62 258.953 91.62 258.953 91.62 258.978L91.5196 259.129L90.5152 260.761C89.8624 261.816 89.2346 262.87 88.6069 263.875C88.1549 264.326 87.5523 264.929 86.7739 265.758C84.7401 265.783 82.4551 265.632 80.0697 265.205C77.2826 264.879 74.395 264.126 71.6581 263.046C68.8458 262.142 66.2093 260.836 63.9495 259.254C61.6143 257.798 59.6307 256.066 58.2497 254.333C57.647 253.68 57.1198 253.027 56.6678 252.4C59.9571 239.845 64.3261 224.428 69.8 217.548ZM-12.2324 383.32C-10.6254 382.165 -9.29458 381.713 -8.13955 381.763C-7.98889 381.763 -7.83823 381.813 -7.68758 381.838C-7.96378 382.014 -8.23998 382.165 -8.51619 382.366C-9.36991 382.968 -10.1232 383.747 -10.776 384.55C-11.4038 385.379 -11.906 386.258 -12.2575 387.086C-12.609 387.94 -12.8601 388.718 -13.0108 389.396C-13.2116 390.049 -13.2368 390.652 -13.3121 391.028C-13.3623 391.405 -13.4125 391.631 -13.4125 391.631C-13.4125 391.631 -13.287 391.455 -13.061 391.129C-12.8099 390.828 -12.5337 390.35 -12.0817 389.873C-11.68 389.371 -11.1276 388.844 -10.55 388.367C-9.94742 387.89 -9.26947 387.463 -8.59151 387.137C-8.16465 386.961 -7.7629 386.835 -7.36115 386.735C-8.59151 389.848 -9.99764 393.037 -11.3284 396.025C-11.68 396.804 -11.9813 397.507 -12.2826 398.21C-14.4169 393.012 -16.3503 386.258 -12.2324 383.32ZM-3.94628 450.262C-8.49108 444.637 -12.1068 439.64 -12.0566 432.685C-12.0064 425.73 -10.2236 419.754 -10.3994 413.903C-10.5752 408.053 -0.255198 391.028 2.38129 378.75C5.06799 366.321 17.8236 332.875 27.3149 317.383C27.7167 316.73 28.1184 316.052 28.5202 315.399L29.7254 321.676L33.542 306.661C40.8991 293.303 48.1808 278.086 51.3697 270.277C51.4701 270.604 51.5455 270.955 51.671 271.307C52.4243 273.165 53.5291 275.249 55.111 277.308C56.7933 279.241 58.9276 281.024 61.3381 282.43C63.8491 283.636 66.5358 284.364 69.0969 284.665C70.2017 284.715 71.2814 284.69 72.2858 284.64C71.4572 285.946 70.6286 287.276 69.7498 288.658C67.1635 292.675 64.301 296.994 61.3632 301.689C58.8774 305.732 56.266 309.925 53.7802 314.595L42.029 324.941H48.909L48.7332 325.292C47.4526 327.979 46.0716 330.716 44.6655 333.478C41.8281 338.977 38.8652 344.551 35.8019 350.025C32.8139 355.499 29.4743 360.922 26.3859 366.471C23.2723 371.996 20.3094 377.52 17.6729 383.044C15.0364 388.568 12.6761 394.042 10.9687 399.641C10.5167 400.997 10.1903 402.503 9.83878 403.859C9.56257 405.165 9.28637 406.446 9.01017 407.726C8.90973 408.253 8.80929 408.756 8.70885 409.283C8.33221 410.564 6.9512 415.51 6.67499 420.507C6.22302 426.307 7.20229 431.856 7.20229 431.856C7.20229 431.856 7.62915 428.718 8.70885 425.027C9.21104 425.855 9.78856 426.583 10.3912 427.161C11.27 427.989 11.9229 428.542 12.5506 429.17C15.1117 431.806 17.1707 434.443 18.5768 436.778C19.983 439.088 20.8618 441.097 21.2635 442.503C21.4644 443.206 21.6151 443.783 21.6653 444.16C21.7406 444.537 21.7657 444.737 21.7657 444.737C21.7406 445.692 21.6402 446.445 21.4644 447.123C21.1882 446.972 20.9622 446.796 20.6358 446.671C19.6565 446.194 18.4513 445.767 17.1205 445.616C15.8148 445.415 14.4087 445.516 13.1532 445.817C12.5255 446.018 11.8977 446.144 11.3453 446.42C10.7929 446.671 10.2154 446.897 9.76345 447.198C8.78418 447.751 7.98068 448.403 7.30273 448.956C6.62477 449.483 6.1728 450.035 5.79616 450.387C5.44463 450.739 5.24376 450.939 5.24376 450.939C5.24376 450.939 5.49485 450.839 5.94682 450.638C6.39879 450.462 7.00142 450.136 7.80491 449.91C8.58331 449.659 9.48725 449.383 10.4665 449.257C10.8432 449.157 11.2198 449.157 11.6215 449.157C11.0691 449.307 10.4916 449.533 9.86388 449.835C6.22302 451.642 6.17281 453.275 6.44901 454.053L5.74595 454.706C5.54507 454.731 5.29398 454.731 5.04288 454.731C2.88348 454.656 -0.882933 454.028 -3.94628 450.262ZM84.4639 687.771L92.8253 711.5C92.5993 711.726 92.3984 711.951 92.1725 712.177C89.6113 709.441 84.4639 706.001 84.4639 687.771ZM89.4606 754.437C86.6735 754.637 84.0119 754.713 81.4759 754.713C55.8141 754.713 43.9122 745.573 53.8304 742.51C54.3828 742.334 54.9352 742.208 55.4625 742.083C56.6427 741.907 57.9484 741.857 59.2792 741.882C60.6602 741.932 62.1918 742.208 63.7737 742.484C65.3556 742.761 67.0128 743.263 68.7705 743.64C70.5282 744.041 72.3611 744.518 74.2695 744.92C76.2029 745.247 78.1865 745.498 80.1451 745.623C82.0785 745.799 84.0119 745.673 85.87 745.548C89.5611 745.297 92.9508 744.493 95.7129 743.539C98.5 742.61 100.659 741.48 102.116 740.601C103.572 739.722 104.351 739.12 104.351 739.12C104.351 739.12 103.371 739.195 101.714 739.296C100.057 739.421 97.7216 739.572 94.9847 739.672C92.2478 739.722 89.1091 739.748 85.7947 739.522C84.1375 739.446 82.43 739.195 80.7226 739.044C78.99 738.869 77.2826 738.567 75.55 738.216C75.3492 738.191 75.1232 738.141 74.9223 738.09C72.8382 735.429 70.7541 732.139 71.2061 730.106C71.7836 730.131 72.4365 730.131 73.1898 730.055C74.0937 730.005 75.1232 729.905 76.2029 729.679C77.3077 729.503 78.4878 729.202 79.6931 728.8C80.9234 728.423 82.1789 727.921 83.4344 727.318C84.6647 726.666 86.0207 726.088 87.2008 725.209C88.4563 724.431 89.6113 723.477 90.8165 722.573C91.8962 721.543 93.0262 720.539 94.0054 719.434C94.4323 719.007 94.8089 718.53 95.1856 718.053L95.7631 719.66C94.7838 720.79 93.7543 721.92 92.6495 723C91.143 724.531 89.5611 725.988 87.9792 727.243C86.3722 728.448 84.9158 729.679 83.5097 730.558C82.1538 731.461 80.9988 732.24 80.1702 732.717C79.3416 733.219 78.8645 733.52 78.8645 733.52C78.8645 733.52 79.3918 733.37 80.3459 733.119C81.275 732.817 82.6309 732.416 84.1375 731.687C85.6691 730.984 87.4017 730.055 89.1593 728.85C90.8668 727.62 92.6244 726.188 94.2565 724.632C95.06 723.778 95.8384 722.874 96.5666 721.995L99.0524 729.026C98.5251 729.905 98.0732 730.683 97.7216 731.21C97.345 731.813 97.1441 732.165 97.1441 732.165C97.1441 732.165 97.4705 731.939 98.048 731.512C98.4247 731.21 98.952 730.758 99.5044 730.256L101.689 736.458C101.94 737.136 102.367 737.714 102.969 738.141L110.276 743.188C110.402 743.263 110.553 743.313 110.678 743.388C110.176 748.661 106.435 753.256 89.4606 754.437ZM115.273 725.184L90.9923 651.513C92.072 648.349 92.9006 645.487 93.1517 642.223C96.5917 660.603 102.216 677.301 107.414 692.667C111.381 704.419 114.896 714.864 116.805 724.28C116.303 724.556 115.775 724.833 115.273 725.184ZM143.772 788.761C143.396 788.862 142.969 788.937 142.567 789.037C142.492 788.786 142.441 788.535 142.391 788.259C142.215 787.255 142.291 785.949 142.291 784.643C142.215 783.337 142.115 782.057 142.04 780.852C141.964 779.646 141.738 778.516 141.613 777.537C141.487 776.558 141.236 775.754 141.136 775.202C140.985 774.65 140.885 774.323 140.885 774.323C140.885 774.323 140.809 774.65 140.684 775.227C140.608 775.805 140.408 776.608 140.332 777.587C140.257 778.567 140.081 779.697 140.081 780.902C140.056 782.107 140.056 783.413 140.031 784.718C140.131 785.999 140.131 787.33 140.458 788.686C140.508 788.937 140.608 789.163 140.709 789.389C139.378 789.615 137.997 789.766 136.591 789.791C136.491 789.464 136.44 789.113 136.415 788.686C136.34 787.907 136.465 786.953 136.541 785.924C136.516 784.919 136.516 783.915 136.491 782.961C136.491 782.007 136.29 781.128 136.239 780.375C136.164 779.621 135.963 778.994 135.888 778.542C135.762 778.09 135.687 777.839 135.687 777.839C135.687 777.839 135.587 778.09 135.436 778.516C135.335 778.943 135.084 779.571 134.959 780.324C134.833 781.078 134.607 781.956 134.532 782.885C134.457 783.815 134.356 784.819 134.281 785.823C134.306 786.803 134.256 787.857 134.482 788.962C134.532 789.238 134.607 789.489 134.733 789.74C133.703 789.69 132.699 789.59 131.745 789.389C131.72 789.263 131.695 789.138 131.695 789.012C131.594 788.309 131.644 787.481 131.745 786.627C131.77 785.723 131.77 784.844 131.77 783.99C131.795 783.137 131.644 782.333 131.594 781.655C131.544 780.977 131.368 780.4 131.293 779.998C131.192 779.596 131.117 779.37 131.117 779.37C131.117 779.37 131.017 779.596 130.841 779.973C130.715 780.349 130.464 780.902 130.314 781.58C130.163 782.258 129.912 783.011 129.811 783.865C129.711 784.718 129.585 785.622 129.485 786.501C129.485 787.229 129.535 788.008 129.661 788.761C129.159 788.56 128.682 788.334 128.255 788.083C128.204 787.882 128.154 787.681 128.104 787.48C127.953 786.928 127.853 786.3 127.803 785.673C127.677 785.045 127.602 784.417 127.552 783.789C127.526 783.162 127.376 782.559 127.326 782.032C127.275 781.505 127.1 781.052 127.049 780.726C126.949 780.4 126.899 780.224 126.899 780.224C126.899 780.224 126.798 780.4 126.623 780.676C126.497 780.977 126.221 781.379 126.045 781.906C125.894 782.433 125.618 783.036 125.568 783.739C125.518 784.292 125.518 784.919 125.543 785.522C122.253 780.349 121.651 767.669 123.484 759.408C124.438 755.165 125.191 748.737 125.342 742.108C125.844 743.263 126.296 744.267 126.648 745.046C127.275 746.301 127.652 747.004 127.652 747.004C127.652 747.004 127.602 746.201 127.501 744.82C127.326 743.439 127.074 741.48 126.773 739.12C126.346 736.81 125.819 734.098 125.292 731.185C125.041 730.131 124.764 729.026 124.488 727.921C124.312 726.917 124.137 725.963 123.911 725.059C122.028 714.638 118.211 703.289 113.867 690.458C105.907 666.981 96.9181 640.339 96.7172 609.581C97.0688 608.4 97.345 607.195 97.4956 605.889C97.5459 605.387 97.571 604.86 97.6212 604.333C98.6005 605.889 99.655 607.446 100.885 608.928C102.944 611.464 105.254 613.874 107.69 616.084C110.126 618.294 112.586 620.428 114.896 622.587C117.257 624.696 119.366 626.931 121.324 629.291C121.525 629.542 121.701 629.794 121.902 630.02C123.032 634.112 124.589 639.837 125.97 646.793C126.673 650.333 127.351 654.2 128.054 658.268C128.681 662.36 129.359 666.704 130.037 671.174C130.715 675.668 131.318 680.314 132.071 685.059C132.825 689.78 133.578 694.601 134.457 699.447C135.386 704.268 136.44 709.064 137.595 713.784C137.671 714.161 137.796 714.538 137.872 714.889C138.198 718.053 138.575 721.066 138.976 723.878C140.081 731.813 141.487 738.341 142.642 742.836C143.22 745.096 143.722 746.854 144.099 748.034C144.199 748.335 144.274 748.611 144.35 748.837C144.375 748.963 144.4 749.113 144.425 749.239C144.475 749.942 144.551 750.695 144.601 751.373C145.103 758.328 145.555 764.204 146.107 768.422C146.107 770.958 146.082 773.244 146.158 775.277C146.359 781.831 149.296 787.38 143.772 788.761ZM213.25 709.415C214.907 712.127 219.226 715.14 222.515 717.877C222.791 718.254 223.043 718.706 223.394 719.108C223.821 719.635 224.223 720.212 224.599 720.79C225.051 721.342 225.478 721.895 225.855 722.447C226.156 722.924 226.533 723.326 226.834 723.728C226.985 724.858 226.759 725.737 226.382 726.666C226.181 725.937 225.905 725.184 225.579 724.456C225.127 723.753 224.624 723.1 224.122 722.548C223.595 721.97 222.967 721.619 222.44 721.292C221.938 720.966 221.41 720.84 221.059 720.74C220.707 720.664 220.507 720.614 220.507 720.614C220.507 720.614 220.607 720.79 220.808 721.091C221.034 721.342 221.26 721.82 221.586 722.246C221.938 722.673 222.189 723.276 222.591 723.803C222.967 724.356 223.319 724.958 223.595 725.586C223.972 726.163 224.298 726.791 224.549 727.394C224.8 727.996 225.152 728.549 225.328 729.051C225.353 729.151 225.403 729.227 225.453 729.302C225.353 729.704 225.227 730.106 225.152 730.583C225.102 730.809 225.051 730.984 225.001 731.185C224.574 730.081 223.896 729.151 223.294 728.323C222.515 727.419 221.712 726.54 220.984 725.686C220.255 724.833 219.427 724.155 218.799 723.527C218.171 722.899 217.519 722.447 217.117 722.096C216.69 721.769 216.439 721.594 216.439 721.594C216.439 721.594 216.564 721.87 216.79 722.372C217.041 722.824 217.343 723.552 217.82 724.305C218.297 725.059 218.799 726.013 219.477 726.892C220.13 727.795 220.858 728.75 221.561 729.704C222.365 730.608 223.043 731.411 223.369 732.24C223.645 732.968 223.771 733.772 223.67 734.475C223.168 735.203 222.565 735.78 221.837 736.207C221.837 735.605 221.712 734.977 221.486 734.475C221.159 733.746 220.707 733.144 220.255 732.591C219.251 731.612 218.347 730.809 217.443 729.98C216.564 729.151 215.61 728.524 214.857 727.896C214.104 727.293 213.375 726.866 212.898 726.54C212.396 726.239 212.12 726.063 212.12 726.063C212.12 726.063 212.296 726.339 212.597 726.841C212.923 727.293 213.35 728.021 213.953 728.775C214.581 729.528 215.234 730.457 216.062 731.361C216.866 732.24 217.82 733.219 218.573 734.098C219.402 734.927 219.954 735.831 219.829 736.508C219.803 736.634 219.753 736.785 219.703 736.935C219.502 736.96 219.301 737.011 219.075 737.036C218.95 737.036 218.824 737.036 218.699 737.036C215.033 737.036 206.546 734.249 202.955 728.473C199.967 723.627 195.698 717.35 193.564 711.851C193.514 711.7 193.489 711.575 193.439 711.424C194.267 712.906 195.071 714.186 195.724 715.115C196.276 715.894 196.778 716.421 197.105 716.823C197.431 717.199 197.607 717.4 197.607 717.4C197.607 717.4 197.155 716.421 196.502 714.688C195.774 712.981 194.92 710.495 194.267 707.457C193.464 704.444 192.836 700.878 192.434 696.986C191.882 693.119 191.505 688.951 191.179 684.733C190.651 680.515 190.074 676.271 189.296 672.279C188.367 668.311 187.237 664.671 186.006 661.632C184.65 658.644 183.219 656.309 182.139 654.777C181.587 653.999 181.085 653.447 180.783 653.07C180.457 652.693 180.281 652.467 180.281 652.467C180.281 652.467 180.733 653.447 181.361 655.204C181.913 656.51 182.541 658.318 183.094 660.452C180.984 655.38 178.172 650.459 174.958 645.989C172.974 643.127 170.991 640.39 169.409 637.603C167.877 634.866 166.722 631.777 165.743 628.588C163.709 622.211 162.479 615.531 161.951 608.903C161.55 603.856 161.525 598.809 161.876 593.912C170.012 576.587 184.927 566.568 198.209 560.015C197.707 563.831 197.105 568.728 196.552 574.377C196.176 577.892 195.799 581.684 195.472 585.727C195.121 589.744 194.744 593.988 194.468 598.382C194.242 602.726 193.589 607.446 194.468 612.644C194.895 615.205 195.799 617.867 196.954 620.152C198.084 622.462 199.39 624.521 200.519 626.504C201.725 628.463 202.779 630.346 203.507 632.204C204.211 634.087 204.663 636.046 204.863 638.08C205.215 642.172 204.763 646.491 204.06 650.735C203.382 655.003 202.553 659.247 202.177 663.44C201.8 667.659 201.951 671.651 202.428 675.267C203.307 681.996 205.315 687.319 207.073 691.035C209.006 698.468 211.618 706.729 213.25 709.415ZM280.945 419.251C280.945 419.502 280.869 419.728 280.794 419.954C280.493 419.929 280.217 419.904 279.94 419.904C280.116 419.553 280.192 419.126 280.016 418.724L279.388 417.192C280.292 417.443 280.945 418.247 280.945 419.251Z" fill="#3F3F3F"/>
</svg>