<svg width="364" height="100" viewBox="0 0 364 100" fill="none" xmlns="http://www.w3.org/2000/svg">
<path d="M363.863 49.1895L343.508 69.2316H363.863V81.5789H325.658V69.2316L346.013 49.1895H325.658V36.8421H363.863V49.1895Z" fill="#030617"/>
<path d="M304.38 36.8421H316.727V81.5789H304.38V36.8421ZM310.643 31.6974C308.853 31.6974 307.347 31.1009 306.124 29.9079C304.902 28.7149 304.29 27.2386 304.29 25.4789C304.29 23.7193 304.902 22.243 306.124 21.05C307.347 19.857 308.838 19.2605 310.598 19.2605C312.358 19.2605 313.834 19.857 315.027 21.05C316.25 22.243 316.861 23.7193 316.861 25.4789C316.861 27.2386 316.265 28.7149 315.072 29.9079C313.909 31.1009 312.432 31.6974 310.643 31.6974Z" fill="#030617"/>
<path d="M249.815 81.5789L266.188 59.1211L249.994 36.8421H265.204L273.749 48.5632L282.383 36.8421H297.638L281.399 59.1211L297.773 81.5789H282.562L273.749 69.5895L265.025 81.5789H249.815Z" fill="#030617"/>
<path d="M231.491 36.8421H243.838V81.5789H231.446L230.864 76.9263C229.701 78.6561 228.21 80.0579 226.391 81.1316C224.571 82.2053 222.439 82.7421 219.993 82.7421C216.653 82.7421 213.536 82.1158 210.643 80.8632C207.75 79.6105 205.2 77.8807 202.993 75.6737C200.786 73.4667 199.057 70.9167 197.804 68.0237C196.581 65.1009 195.97 61.9693 195.97 58.6289C195.97 55.4377 196.551 52.4553 197.714 49.6816C198.878 46.9079 200.518 44.4623 202.635 42.3447C204.753 40.2272 207.184 38.5719 209.928 37.379C212.701 36.186 215.684 35.5895 218.875 35.5895C221.619 35.5895 224.079 36.1711 226.257 37.3342C228.464 38.4974 230.387 39.9737 232.028 41.7632L231.491 36.8421ZM219.68 70.8868C221.708 70.8868 223.542 70.3649 225.183 69.3211C226.823 68.2772 228.121 66.8754 229.075 65.1158C230.029 63.3263 230.507 61.3579 230.507 59.2105C230.507 57.0333 230.029 55.0649 229.075 53.3053C228.121 51.5456 226.823 50.1439 225.183 49.1C223.542 48.0561 221.708 47.5342 219.68 47.5342C217.622 47.5342 215.758 48.0561 214.088 49.1C212.418 50.1439 211.091 51.5605 210.107 53.35C209.122 55.1096 208.63 57.0632 208.63 59.2105C208.63 61.3579 209.122 63.3263 210.107 65.1158C211.121 66.8754 212.463 68.2772 214.133 69.3211C215.803 70.3649 217.652 70.8868 219.68 70.8868Z" fill="#030617"/>
<path d="M118.704 81.5789L130.873 18.9474H141.296L155.836 57.2868L170.42 18.9474H180.844L193.012 81.5789H180.396L173.462 45.6553L160.086 80.9526H151.586L138.254 45.6553L131.275 81.5789H118.704Z" fill="#030617"/>
<path d="M35.9088 24.4444V100H0V65.9116C0 29.51 29.51 0 65.9116 0H94.9148C97.8215 0 100.178 2.3564 100.178 5.26316V65.4188C100.178 84.4101 84.7865 99.8015 65.7952 99.8015V35.4298H78.3602L87.2639 42.1593L78.3602 48.8889V74.0008C83.274 74.0008 87.2639 70.0178 87.2639 65.0972V48.8889V35.4298V14.1391H68.0879C38.0988 14.1391 13.79 38.4479 13.79 68.4369V86.2168H22.2967V26.6667L35.9088 24.4444Z" fill="#5939C6"/>
<path d="M44.4444 98.5439H57.5364L57.5364 57.5364C57.5364 56.8091 57.4771 56.0956 57.3631 55.4006C55.7157 45.3612 44.4444 52.6919 44.4444 62.8655V98.5439Z" fill="#5939C6"/>
</svg>
