<svg width="153" height="42" viewBox="0 0 153 42" fill="none" xmlns="http://www.w3.org/2000/svg">
<path d="M152.822 20.6596L144.273 29.0773H152.822V34.2632H136.776V29.0773L145.325 20.6596H136.776V15.4737H152.822V20.6596Z" fill="#030617"/>
<path d="M127.839 15.4737H133.025V34.2632H127.839V15.4737ZM130.47 13.3129C129.718 13.3129 129.086 13.0624 128.572 12.5613C128.059 12.0603 127.802 11.4402 127.802 10.7012C127.802 9.9621 128.059 9.34205 128.572 8.841C129.086 8.33995 129.712 8.08942 130.451 8.08942C131.19 8.08942 131.81 8.33995 132.311 8.841C132.825 9.34205 133.082 9.9621 133.082 10.7012C133.082 11.4402 132.831 12.0603 132.33 12.5613C131.842 13.0624 131.222 13.3129 130.47 13.3129Z" fill="#030617"/>
<path d="M104.922 34.2632L111.799 24.8308L104.997 15.4737H111.386L114.975 20.3965L118.601 15.4737H125.008L118.188 24.8308L125.064 34.2632H118.676L114.975 29.2276L111.311 34.2632H104.922Z" fill="#030617"/>
<path d="M97.2261 15.4737H102.412V34.2632H97.2073L96.9631 32.3091C96.4745 33.0356 95.8482 33.6243 95.0841 34.0753C94.32 34.5262 93.4244 34.7517 92.3972 34.7517C90.9943 34.7517 89.6853 34.4886 88.4702 33.9625C87.2552 33.4364 86.1842 32.7099 85.2572 31.7829C84.3303 30.856 83.6037 29.785 83.0776 28.5699C82.5641 27.3424 82.3073 26.0271 82.3073 24.6242C82.3073 23.2838 82.5515 22.0312 83.0401 20.8663C83.5286 19.7013 84.2175 18.6742 85.1069 17.7848C85.9963 16.8954 87.0172 16.2002 88.1696 15.6992C89.3345 15.1981 90.5872 14.9476 91.9275 14.9476C93.0799 14.9476 94.1133 15.1918 95.0277 15.6804C95.9547 16.1689 96.7626 16.7889 97.4516 17.5405L97.2261 15.4737ZM92.2657 29.7725C93.1175 29.7725 93.8878 29.5533 94.5768 29.1148C95.2657 28.6764 95.8106 28.0877 96.2115 27.3486C96.6123 26.5971 96.8127 25.7703 96.8127 24.8684C96.8127 23.954 96.6123 23.1273 96.2115 22.3882C95.8106 21.6492 95.2657 21.0604 94.5768 20.622C93.8878 20.1836 93.1175 19.9644 92.2657 19.9644C91.4014 19.9644 90.6185 20.1836 89.917 20.622C89.2155 21.0604 88.6581 21.6554 88.2447 22.407C87.8314 23.1461 87.6247 23.9665 87.6247 24.8684C87.6247 25.7703 87.8314 26.5971 88.2447 27.3486C88.6706 28.0877 89.2343 28.6764 89.9358 29.1148C90.6373 29.5533 91.4139 29.7725 92.2657 29.7725Z" fill="#030617"/>
<path d="M49.8558 34.2632L54.9665 7.95789H59.3445L65.451 24.0605L71.5764 7.95789H75.9544L81.0651 34.2632H75.7665L72.8541 19.1752L67.236 34.0001H63.666L58.0668 19.1752L55.1356 34.2632H49.8558Z" fill="#030617"/>
<path d="M15.0817 10.2667V42H0V27.6829C0 12.3942 12.3942 0 27.6829 0H39.8642C41.085 0 42.0747 0.989686 42.0747 2.21053V27.4759C42.0747 35.4522 35.6103 41.9166 27.634 41.9166V14.8805H32.9113L36.6508 17.7069L32.9113 20.5333V31.0803C34.9751 31.0803 36.6508 29.4075 36.6508 27.3408V20.5333V14.8805V5.93841H28.5969C16.0015 5.93841 5.79181 16.1481 5.79181 28.7435V36.2111H9.36463V11.2L15.0817 10.2667Z" fill="#030617"/>
<path d="M18.6667 41.3884H24.1653L24.1653 24.1653C24.1653 23.8598 24.1404 23.5602 24.0925 23.2682C23.4006 19.0517 18.6667 22.1306 18.6667 26.4035V41.3884Z" fill="#030617"/>
</svg>
